{
  "source": "C:\\Users\\Peter\\Desktop\\stuff\\MIUN\\quantitative_research\\video_compression\\videos\\HEVC_CLASS_B\\Cactus_1920x1080_50.y4m",
  "output": "C:\\Users\\Peter\\Desktop\\stuff\\MIUN\\quantitative_research\\video_compression\\compressed_videos\\HEVC_CLASS_B\\av1\\8\\Cactus_1920x1080_50_av1.mkv",
  "codec": "av1",
  "ok": "Input #0, yuv4mpegpipe, from 'C:\\Users\\Peter\\Desktop\\stuff\\MIUN\\quantitative_research\\video_compression\\videos\\HEVC_CLASS_B\\Cactus_1920x1080_50.y4m':\n  Duration: 00:00:10.00, start: 0.000000, bitrate: 1244162 kb/s\n  Stream #0:0: Video: rawvideo (I420 / 0x30323449), yuv420p(progressive), 1920x1080, 50 fps, 50 tbr, 50 tbn\n[out#0/matroska @ 000002580d939080] Codec AVOption b:a (set bitrate (in bits/s)) has not been used for any stream. The most likely reason is either wrong type (e.g. a video option with no video streams) or that it is a private option of some decoder which was not actually used for any stream.\nStream mapping:\n  Stream #0:0 -> #0:0 (rawvideo (native) -> av1 (libsvtav1))\nPress [q] to stop, [?] for help\nSvt[info]: -------------------------------------------\nSvt[info]: SVT [version]:\tSVT-AV1 Encoder Lib v3.1.0-19-g6ecfe8ec\nSvt[info]: SVT [build]  :\tGCC 15.2.0\t 64 bit\nSvt[info]: LIB Build date: Aug 17 2025 11:37:13\nSvt[info]: -------------------------------------------\n[libsvtav1 @ 000002580d93c0c0] Specified chroma sample location center is unsupported on the AV1 bit stream level. Usage of a container that allows passing this information - such as Matroska - is recommended.\nSvt[info]: Level of Parallelism: 5\nSvt[info]: Number of PPCS 93\nSvt[info]: [asm level on system : up to avx2]\nSvt[info]: [asm level selected : up to avx2]\nSvt[info]: -------------------------------------------\nSvt[info]: SVT [config]: main profile\ttier (auto)\tlevel (auto)\nSvt[info]: SVT [config]: width / height / fps numerator / fps denominator \t\t: 1920 / 1080 / 50 / 1\nSvt[info]: SVT [config]: bit-depth / color format \t\t\t\t\t: 8 / YUV420\nSvt[info]: SVT [config]: preset / tune / pred struct \t\t\t\t\t: 4 / PSNR / random access\nSvt[info]: SVT [config]: gop size / mini-gop size / key-frame type \t\t\t: 321 / 16 / key frame\nSvt[info]: SVT [config]: BRC mode / target bitrate (kbps)\t\t\t\t: VBR / 8000 \nSvt[info]: SVT [config]: AQ mode / Variance Boost \t\t\t\t\t: 2 / 0\nSvt[info]: SVT [config]: sharpness / luminance-based QP bias \t\t\t\t: 0 / 0\nSvt[info]: SVT [config]: QP scale compress strength \t\t\t\t\t: 0\nSvt[info]: -------------------------------------------\nOutput #0, matroska, to 'C:\\Users\\Peter\\Desktop\\stuff\\MIUN\\quantitative_research\\video_compression\\compressed_videos\\HEVC_CLASS_B\\av1\\8\\Cactus_1920x1080_50_av1.mkv':\n  Metadata:\n    encoder         : Lavf62.3.100\n  Stream #0:0: Video: av1 (AV01 / 0x31305641), yuv420p(tv, progressive), 1920x1080, q=2-31, 8000 kb/s, 50 fps, 1k tbn\n    Metadata:\n      encoder         : Lavc62.11.100 libsvtav1\n    Side data:\n      cpb: bitrate max/min/avg: 0/0/8000000 buffer size: 8000000 vbv_delay: N/A\nframe=    0 fps=0.0 q=0.0 size=       0KiB time=N/A bitrate=N/A speed=N/A elapsed=0:00:03.11    \nframe=    0 fps=0.0 q=0.0 size=       0KiB time=N/A bitrate=N/A speed=N/A elapsed=0:00:03.73    \nframe=    0 fps=0.0 q=0.0 size=       0KiB time=N/A bitrate=N/A speed=N/A elapsed=0:00:04.29    \nframe=    0 fps=0.0 q=0.0 size=       0KiB time=N/A bitrate=N/A speed=N/A elapsed=0:00:04.84    \nframe=    0 fps=0.0 q=0.0 size=       0KiB time=N/A bitrate=N/A speed=N/A elapsed=0:00:05.36    \nframe=    0 fps=0.0 q=0.0 size=       0KiB time=N/A bitrate=N/A speed=N/A elapsed=0:00:05.89    \nframe=    0 fps=0.0 q=0.0 size=       0KiB time=N/A bitrate=N/A speed=N/A elapsed=0:00:06.46    \nframe=    0 fps=0.0 q=0.0 size=       0KiB time=N/A bitrate=N/A speed=N/A elapsed=0:00:06.99    \nframe=    0 fps=0.0 q=0.0 size=       0KiB time=N/A bitrate=N/A speed=N/A elapsed=0:00:07.56    \nframe=    0 fps=0.0 q=0.0 size=       0KiB time=N/A bitrate=N/A speed=N/A elapsed=0:00:08.10    \nframe=    0 fps=0.0 q=0.0 size=       0KiB time=N/A bitrate=N/A speed=N/A elapsed=0:00:08.71    \nframe=    0 fps=0.0 q=0.0 size=       0KiB time=N/A bitrate=N/A speed=N/A elapsed=0:00:09.22    \nframe=    0 fps=0.0 q=0.0 size=       0KiB time=N/A bitrate=N/A speed=N/A elapsed=0:00:09.74    \nframe=    0 fps=0.0 q=0.0 size=       0KiB time=N/A bitrate=N/A speed=N/A elapsed=0:00:10.27    \nframe=    0 fps=0.0 q=0.0 size=       0KiB time=N/A bitrate=N/A speed=N/A elapsed=0:00:10.84    \nframe=    0 fps=0.0 q=0.0 size=       0KiB time=N/A bitrate=N/A speed=N/A elapsed=0:00:11.37    \nframe=    0 fps=0.0 q=0.0 size=       0KiB time=N/A bitrate=N/A speed=N/A elapsed=0:00:11.90    \nframe=    0 fps=0.0 q=0.0 size=       0KiB time=N/A bitrate=N/A speed=N/A elapsed=0:00:12.46    \nframe=    0 fps=0.0 q=0.0 size=       0KiB time=N/A bitrate=N/A speed=N/A elapsed=0:00:12.99    \nframe=    0 fps=0.0 q=0.0 size=       0KiB time=N/A bitrate=N/A speed=N/A elapsed=0:00:13.52    \nframe=    0 fps=0.0 q=0.0 size=       0KiB time=N/A bitrate=N/A speed=N/A elapsed=0:00:14.04    \nframe=    0 fps=0.0 q=0.0 size=       0KiB time=N/A bitrate=N/A speed=N/A elapsed=0:00:14.58    \nframe=    0 fps=0.0 q=0.0 size=       0KiB time=N/A bitrate=N/A speed=N/A elapsed=0:00:15.10    \nframe=    0 fps=0.0 q=0.0 size=       0KiB time=N/A bitrate=N/A speed=N/A elapsed=0:00:15.62    \nframe=    0 fps=0.0 q=0.0 size=       0KiB time=N/A bitrate=N/A speed=N/A elapsed=0:00:16.15    \nframe=    1 fps=0.1 q=8.0 size=       1KiB time=00:00:00.00 bitrate=N/A speed=   0x elapsed=0:00:16.68    \nframe=    1 fps=0.1 q=8.0 size=       1KiB time=00:00:00.00 bitrate=N/A speed=   0x elapsed=0:00:17.19    \nframe=    1 fps=0.1 q=8.0 size=       1KiB time=00:00:00.00 bitrate=N/A speed=   0x elapsed=0:00:17.71    \nframe=    1 fps=0.1 q=8.0 size=       1KiB time=00:00:00.00 bitrate=N/A speed=   0x elapsed=0:00:18.24    \nframe=    1 fps=0.1 q=8.0 size=       1KiB time=00:00:00.00 bitrate=N/A speed=   0x elapsed=0:00:18.75    \nframe=    1 fps=0.1 q=8.0 size=       1KiB time=00:00:00.00 bitrate=N/A speed=   0x elapsed=0:00:19.27    \nframe=    1 fps=0.1 q=8.0 size=       1KiB time=00:00:00.00 bitrate=N/A speed=   0x elapsed=0:00:19.80    \nframe=    1 fps=0.0 q=8.0 size=       1KiB time=00:00:00.00 bitrate=N/A speed=   0x elapsed=0:00:20.34    \nframe=    1 fps=0.0 q=8.0 size=       1KiB time=00:00:00.00 bitrate=N/A speed=   0x elapsed=0:00:20.91    \nframe=    1 fps=0.0 q=8.0 size=       1KiB time=00:00:00.00 bitrate=N/A speed=   0x elapsed=0:00:21.44    \nframe=    1 fps=0.0 q=8.0 size=       1KiB time=00:00:00.00 bitrate=N/A speed=   0x elapsed=0:00:22.00    \nframe=    3 fps=0.1 q=33.0 size=       1KiB time=00:00:00.04 bitrate= 112.4kbits/s speed=0.00177x elapsed=0:00:22.55    \nframe=    4 fps=0.2 q=36.0 size=       1KiB time=00:00:00.06 bitrate=  74.9kbits/s speed=0.0026x elapsed=0:00:23.10    \nframe=    5 fps=0.2 q=31.0 size=       1KiB time=00:00:00.08 bitrate=  56.2kbits/s speed=0.00338x elapsed=0:00:23.63    \nframe=    6 fps=0.2 q=33.0 size=       1KiB time=00:00:00.10 bitrate=  45.0kbits/s speed=0.00414x elapsed=0:00:24.16    \nframe=    7 fps=0.3 q=32.0 size=       1KiB time=00:00:00.12 bitrate=  37.5kbits/s speed=0.00485x elapsed=0:00:24.72    \nframe=    7 fps=0.3 q=32.0 size=       1KiB time=00:00:00.12 bitrate=  37.5kbits/s speed=0.00475x elapsed=0:00:25.23    \nframe=    8 fps=0.3 q=32.0 size=       1KiB time=00:00:00.14 bitrate=  32.1kbits/s speed=0.00542x elapsed=0:00:25.83    \nframe=    8 fps=0.3 q=32.0 size=       1KiB time=00:00:00.14 bitrate=  32.1kbits/s speed=0.00529x elapsed=0:00:26.44    \nframe=    9 fps=0.3 q=27.0 size=       1KiB time=00:00:00.16 bitrate=  28.1kbits/s speed=0.00592x elapsed=0:00:27.02    \nframe=   10 fps=0.4 q=30.0 size=       1KiB time=00:00:00.18 bitrate=  25.0kbits/s speed=0.00653x elapsed=0:00:27.55    \nframe=   11 fps=0.4 q=31.0 size=       1KiB time=00:00:00.20 bitrate=  22.5kbits/s speed=0.00712x elapsed=0:00:28.08    \nframe=   11 fps=0.4 q=31.0 size=       1KiB time=00:00:00.20 bitrate=  22.5kbits/s speed=0.00698x elapsed=0:00:28.66    \nframe=   12 fps=0.4 q=28.0 size=       1KiB time=00:00:00.22 bitrate=  20.4kbits/s speed=0.00753x elapsed=0:00:29.22    \nframe=   12 fps=0.4 q=28.0 size=       1KiB time=00:00:00.22 bitrate=  20.4kbits/s speed=0.00739x elapsed=0:00:29.76    \nframe=   14 fps=0.5 q=29.0 size=       1KiB time=00:00:00.26 bitrate=  17.3kbits/s speed=0.00858x elapsed=0:00:30.28    \nframe=   16 fps=0.5 q=29.0 size=       1KiB time=00:00:00.30 bitrate=  15.0kbits/s speed=0.00974x elapsed=0:00:30.81    \nframe=   17 fps=0.5 q=19.0 size=       1KiB time=00:00:00.32 bitrate=  14.1kbits/s speed=0.0102x elapsed=0:00:31.34    \nframe=   17 fps=0.5 q=19.0 size=       1KiB time=00:00:00.32 bitrate=  14.1kbits/s speed=0.01x elapsed=0:00:31.86    \nframe=   18 fps=0.6 q=28.0 size=       1KiB time=00:00:00.34 bitrate=  13.2kbits/s speed=0.0105x elapsed=0:00:32.38    \nframe=   19 fps=0.6 q=30.0 size=       1KiB time=00:00:00.36 bitrate=  12.5kbits/s speed=0.0109x elapsed=0:00:32.90    \nframe=   19 fps=0.6 q=30.0 size=       1KiB time=00:00:00.36 bitrate=  12.5kbits/s speed=0.0108x elapsed=0:00:33.45    \nframe=   20 fps=0.6 q=27.0 size=       1KiB time=00:00:00.38 bitrate=  11.8kbits/s speed=0.0112x elapsed=0:00:33.97    \nframe=   21 fps=0.6 q=30.0 size=       1KiB time=00:00:00.40 bitrate=  11.2kbits/s speed=0.0116x elapsed=0:00:34.54    \nframe=   21 fps=0.6 q=30.0 size=       1KiB time=00:00:00.40 bitrate=  11.2kbits/s speed=0.0114x elapsed=0:00:35.10    \nframe=   22 fps=0.6 q=27.0 size=       1KiB time=00:00:00.42 bitrate=  10.7kbits/s speed=0.0118x elapsed=0:00:35.66    \nframe=   22 fps=0.6 q=27.0 size=       1KiB time=00:00:00.42 bitrate=  10.7kbits/s speed=0.0116x elapsed=0:00:36.21    \nframe=   23 fps=0.6 q=30.0 size=       1KiB time=00:00:00.44 bitrate=  10.2kbits/s speed=0.012x elapsed=0:00:36.78    \nframe=   23 fps=0.6 q=30.0 size=       1KiB time=00:00:00.44 bitrate=  10.2kbits/s speed=0.0118x elapsed=0:00:37.32    \nframe=   25 fps=0.7 q=27.0 size=       1KiB time=00:00:00.46 bitrate=   9.8kbits/s speed=0.0122x elapsed=0:00:37.83    \nframe=   26 fps=0.7 q=26.0 size=       1KiB time=00:00:00.50 bitrate=   9.0kbits/s speed=0.013x elapsed=0:00:38.41    \nframe=   26 fps=0.7 q=26.0 size=       1KiB time=00:00:00.50 bitrate=   9.0kbits/s speed=0.0128x elapsed=0:00:38.95    \nframe=   27 fps=0.7 q=30.0 size=       1KiB time=00:00:00.52 bitrate=   8.6kbits/s speed=0.0132x elapsed=0:00:39.51    \nframe=   28 fps=0.7 q=24.0 size=       1KiB time=00:00:00.54 bitrate=   8.3kbits/s speed=0.0135x elapsed=0:00:40.09    \nframe=   29 fps=0.7 q=28.0 size=       1KiB time=00:00:00.54 bitrate=   8.3kbits/s speed=0.0133x elapsed=0:00:40.65    \nframe=   29 fps=0.7 q=28.0 size=       1KiB time=00:00:00.56 bitrate=   8.0kbits/s speed=0.0136x elapsed=0:00:41.24    \nframe=   32 fps=0.8 q=27.0 size=       1KiB time=00:00:00.62 bitrate=   7.3kbits/s speed=0.0148x elapsed=0:00:41.90    \nframe=   33 fps=0.8 q=19.0 size=       1KiB time=00:00:00.64 bitrate=   7.0kbits/s speed=0.0151x elapsed=0:00:42.52    \nframe=   34 fps=0.8 q=27.0 size=       1KiB time=00:00:00.66 bitrate=   6.8kbits/s speed=0.0153x elapsed=0:00:43.09    \nframe=   35 fps=0.8 q=29.0 size=       1KiB time=00:00:00.66 bitrate=   6.8kbits/s speed=0.0151x elapsed=0:00:43.71    \nframe=   35 fps=0.8 q=29.0 size=       1KiB time=00:00:00.68 bitrate=   6.6kbits/s speed=0.0153x elapsed=0:00:44.32    \nframe=   36 fps=0.8 q=24.0 size=       1KiB time=00:00:00.70 bitrate=   6.4kbits/s speed=0.0156x elapsed=0:00:44.90    \nframe=   37 fps=0.8 q=30.0 size=       1KiB time=00:00:00.72 bitrate=   6.2kbits/s speed=0.0158x elapsed=0:00:45.44    \nframe=   38 fps=0.8 q=25.0 size=       1KiB time=00:00:00.74 bitrate=   6.1kbits/s speed=0.0161x elapsed=0:00:46.00    \nframe=   39 fps=0.8 q=29.0 size=       1KiB time=00:00:00.76 bitrate=   5.9kbits/s speed=0.0163x elapsed=0:00:46.58    \nframe=   39 fps=0.8 q=29.0 size=       1KiB time=00:00:00.76 bitrate=   5.9kbits/s speed=0.0161x elapsed=0:00:47.22    \nframe=   39 fps=0.8 q=29.0 size=       1KiB time=00:00:00.76 bitrate=   5.9kbits/s speed=0.0159x elapsed=0:00:47.72    \nframe=   40 fps=0.8 q=26.0 size=       1KiB time=00:00:00.78 bitrate=   5.8kbits/s speed=0.0162x elapsed=0:00:48.25    \nframe=   42 fps=0.9 q=25.0 size=       1KiB time=00:00:00.82 bitrate=   5.5kbits/s speed=0.0168x elapsed=0:00:48.76    \nframe=   42 fps=0.9 q=25.0 size=       1KiB time=00:00:00.82 bitrate=   5.5kbits/s speed=0.0166x elapsed=0:00:49.27    \nframe=   43 fps=0.9 q=29.0 size=       1KiB time=00:00:00.84 bitrate=   5.4kbits/s speed=0.0169x elapsed=0:00:49.79    \nframe=   43 fps=0.9 q=29.0 size=       1KiB time=00:00:00.84 bitrate=   5.4kbits/s speed=0.0167x elapsed=0:00:50.31    \nframe=   44 fps=0.9 q=25.0 size=       1KiB time=00:00:00.86 bitrate=   5.2kbits/s speed=0.0169x elapsed=0:00:50.81    \nframe=   45 fps=0.9 q=28.0 size=       1KiB time=00:00:00.88 bitrate=   5.1kbits/s speed=0.0171x elapsed=0:00:51.34    \nframe=   46 fps=0.9 q=25.0 size=       1KiB time=00:00:00.90 bitrate=   5.0kbits/s speed=0.0174x elapsed=0:00:51.84    \nframe=   47 fps=0.9 q=29.0 size=       1KiB time=00:00:00.92 bitrate=   4.9kbits/s speed=0.0176x elapsed=0:00:52.37    \nframe=   48 fps=0.9 q=27.0 size=       1KiB time=00:00:00.94 bitrate=   4.8kbits/s speed=0.0178x elapsed=0:00:52.88    \nframe=   50 fps=0.9 q=26.0 size=       1KiB time=00:00:00.98 bitrate=   4.6kbits/s speed=0.0183x elapsed=0:00:53.40    \nframe=   51 fps=0.9 q=30.0 size=       1KiB time=00:00:01.00 bitrate=   4.5kbits/s speed=0.0185x elapsed=0:00:53.91    \nframe=   51 fps=0.9 q=30.0 size=       1KiB time=00:00:01.00 bitrate=   4.5kbits/s speed=0.0184x elapsed=0:00:54.44    \nframe=   51 fps=0.9 q=30.0 size=       1KiB time=00:00:01.00 bitrate=   4.5kbits/s speed=0.0182x elapsed=0:00:54.94    \nframe=   52 fps=0.9 q=25.0 size=       1KiB time=00:00:01.02 bitrate=   4.4kbits/s speed=0.0184x elapsed=0:00:55.45    \nframe=   53 fps=0.9 q=29.0 size=       1KiB time=00:00:01.04 bitrate=   4.3kbits/s speed=0.0186x elapsed=0:00:55.97    \nframe=   54 fps=1.0 q=26.0 size=       1KiB time=00:00:01.06 bitrate=   4.2kbits/s speed=0.0188x elapsed=0:00:56.49    \nframe=   54 fps=0.9 q=26.0 size=       1KiB time=00:00:01.06 bitrate=   4.2kbits/s speed=0.0186x elapsed=0:00:57.01    \nframe=   54 fps=0.9 q=26.0 size=       1KiB time=00:00:01.06 bitrate=   4.2kbits/s speed=0.0184x elapsed=0:00:57.53    \nframe=   55 fps=0.9 q=28.0 size=       1KiB time=00:00:01.08 bitrate=   4.2kbits/s speed=0.0186x elapsed=0:00:58.03    \nframe=   55 fps=0.9 q=28.0 size=       1KiB time=00:00:01.08 bitrate=   4.2kbits/s speed=0.0184x elapsed=0:00:58.55    \nframe=   56 fps=0.9 q=25.0 size=       1KiB time=00:00:01.10 bitrate=   4.1kbits/s speed=0.0186x elapsed=0:00:59.07    \nframe=   58 fps=1.0 q=25.0 size=       1KiB time=00:00:01.14 bitrate=   3.9kbits/s speed=0.0191x elapsed=0:00:59.58    \nframe=   59 fps=1.0 q=30.0 size=       1KiB time=00:00:01.16 bitrate=   3.9kbits/s speed=0.0193x elapsed=0:01:00.10    \nframe=   59 fps=1.0 q=30.0 size=       1KiB time=00:00:01.16 bitrate=   3.9kbits/s speed=0.0191x elapsed=0:01:00.61    \nframe=   60 fps=1.0 q=25.0 size=       1KiB time=00:00:01.18 bitrate=   3.8kbits/s speed=0.0193x elapsed=0:01:01.13    \nframe=   61 fps=1.0 q=27.0 size=       1KiB time=00:00:01.20 bitrate=   3.7kbits/s speed=0.0195x elapsed=0:01:01.64    \nframe=   63 fps=1.0 q=30.0 size=       1KiB time=00:00:01.24 bitrate=   3.6kbits/s speed=0.0199x elapsed=0:01:02.16    \nframe=   63 fps=1.0 q=30.0 size=       1KiB time=00:00:01.24 bitrate=   3.6kbits/s speed=0.0198x elapsed=0:01:02.68    \nframe=   65 fps=1.0 q=12.0 size=       1KiB time=00:00:01.28 bitrate=   3.5kbits/s speed=0.0203x elapsed=0:01:03.20    \nframe=   66 fps=1.0 q=25.0 size=       1KiB time=00:00:01.30 bitrate=   3.5kbits/s speed=0.0204x elapsed=0:01:03.70    \nframe=   67 fps=1.0 q=29.0 size=       1KiB time=00:00:01.32 bitrate=   3.4kbits/s speed=0.0205x elapsed=0:01:04.23    \nframe=   68 fps=1.1 q=22.0 size=       1KiB time=00:00:01.34 bitrate=   3.4kbits/s speed=0.0207x elapsed=0:01:04.74    \nframe=   68 fps=1.0 q=22.0 size=       1KiB time=00:00:01.34 bitrate=   3.4kbits/s speed=0.0205x elapsed=0:01:05.25    \nframe=   69 fps=1.0 q=29.0 size=       1KiB time=00:00:01.36 bitrate=   3.3kbits/s speed=0.0207x elapsed=0:01:05.77    \nframe=   70 fps=1.1 q=26.0 size=       1KiB time=00:00:01.38 bitrate=   3.3kbits/s speed=0.0208x elapsed=0:01:06.28    \nframe=   70 fps=1.0 q=26.0 size=       1KiB time=00:00:01.38 bitrate=   3.3kbits/s speed=0.0207x elapsed=0:01:06.80    \nframe=   71 fps=1.1 q=28.0 size=       1KiB time=00:00:01.40 bitrate=   3.2kbits/s speed=0.0208x elapsed=0:01:07.32    \nframe=   71 fps=1.0 q=28.0 size=       1KiB time=00:00:01.40 bitrate=   3.2kbits/s speed=0.0206x elapsed=0:01:07.83    \nframe=   73 fps=1.1 q=25.0 size=       1KiB time=00:00:01.44 bitrate=   3.1kbits/s speed=0.0211x elapsed=0:01:08.35    \nframe=   74 fps=1.1 q=26.0 size=       1KiB time=00:00:01.46 bitrate=   3.1kbits/s speed=0.0212x elapsed=0:01:08.87    \nframe=   75 fps=1.1 q=30.0 size=       1KiB time=00:00:01.48 bitrate=   3.0kbits/s speed=0.0213x elapsed=0:01:09.38    \nframe=   75 fps=1.1 q=30.0 size=       1KiB time=00:00:01.48 bitrate=   3.0kbits/s speed=0.0212x elapsed=0:01:09.90    \nframe=   76 fps=1.1 q=25.0 size=       1KiB time=00:00:01.50 bitrate=   3.0kbits/s speed=0.0213x elapsed=0:01:10.41    \nframe=   77 fps=1.1 q=27.0 size=       1KiB time=00:00:01.52 bitrate=   3.0kbits/s speed=0.0214x elapsed=0:01:10.93    \nframe=   78 fps=1.1 q=26.0 size=       1KiB time=00:00:01.54 bitrate=   2.9kbits/s speed=0.0216x elapsed=0:01:11.44    \nframe=   79 fps=1.1 q=30.0 size=       1KiB time=00:00:01.56 bitrate=   2.9kbits/s speed=0.0217x elapsed=0:01:11.95    \nframe=   81 fps=1.1 q=8.0 size=       1KiB time=00:00:01.60 bitrate=   2.8kbits/s speed=0.0221x elapsed=0:01:12.48    \nframe=   81 fps=1.1 q=8.0 size=       1KiB time=00:00:01.60 bitrate=   2.8kbits/s speed=0.0219x elapsed=0:01:12.99    \nframe=   82 fps=1.1 q=26.0 size=       1KiB time=00:00:01.62 bitrate=   2.8kbits/s speed=0.022x elapsed=0:01:13.50    \nframe=   83 fps=1.1 q=29.0 size=       1KiB time=00:00:01.64 bitrate=   2.7kbits/s speed=0.0222x elapsed=0:01:14.03    \nframe=   83 fps=1.1 q=29.0 size=       1KiB time=00:00:01.64 bitrate=   2.7kbits/s speed=0.022x elapsed=0:01:14.59    \nframe=   84 fps=1.1 q=26.0 size=       1KiB time=00:00:01.66 bitrate=   2.7kbits/s speed=0.0221x elapsed=0:01:15.13    \nframe=   85 fps=1.1 q=29.0 size=       1KiB time=00:00:01.68 bitrate=   2.7kbits/s speed=0.0222x elapsed=0:01:15.65    \nframe=   86 fps=1.1 q=26.0 size=       1KiB time=00:00:01.70 bitrate=   2.6kbits/s speed=0.0223x elapsed=0:01:16.21    \nframe=   86 fps=1.1 q=26.0 size=       1KiB time=00:00:01.70 bitrate=   2.6kbits/s speed=0.0222x elapsed=0:01:16.74    \nframe=   87 fps=1.1 q=28.0 size=       1KiB time=00:00:01.72 bitrate=   2.6kbits/s speed=0.0223x elapsed=0:01:17.26    \nframe=   87 fps=1.1 q=28.0 size=       1KiB time=00:00:01.72 bitrate=   2.6kbits/s speed=0.0221x elapsed=0:01:17.78    \nframe=   88 fps=1.1 q=26.0 size=       1KiB time=00:00:01.74 bitrate=   2.6kbits/s speed=0.0222x elapsed=0:01:18.31    \nframe=   90 fps=1.1 q=26.0 size=       1KiB time=00:00:01.78 bitrate=   2.5kbits/s speed=0.0226x elapsed=0:01:18.85    \nframe=   91 fps=1.1 q=28.0 size=       1KiB time=00:00:01.80 bitrate=   2.5kbits/s speed=0.0227x elapsed=0:01:19.36    \nframe=   91 fps=1.1 q=28.0 size=       1KiB time=00:00:01.80 bitrate=   2.5kbits/s speed=0.0225x elapsed=0:01:19.93    \nframe=   92 fps=1.1 q=23.0 size=       1KiB time=00:00:01.82 bitrate=   2.5kbits/s speed=0.0226x elapsed=0:01:20.51    \nframe=   93 fps=1.1 q=27.0 size=       1KiB time=00:00:01.84 bitrate=   2.4kbits/s speed=0.0227x elapsed=0:01:21.11    \nframe=   94 fps=1.2 q=25.0 size=       1KiB time=00:00:01.86 bitrate=   2.4kbits/s speed=0.0228x elapsed=0:01:21.70    \nframe=   95 fps=1.2 q=28.0 size=       1KiB time=00:00:01.88 bitrate=   2.4kbits/s speed=0.0229x elapsed=0:01:22.23    \nframe=   96 fps=1.2 q=25.0 size=       1KiB time=00:00:01.90 bitrate=   2.4kbits/s speed=0.023x elapsed=0:01:22.74    \nframe=   97 fps=1.2 q=11.0 size=       1KiB time=00:00:01.92 bitrate=   2.3kbits/s speed=0.0231x elapsed=0:01:23.26    \nframe=   98 fps=1.2 q=26.0 size=       1KiB time=00:00:01.94 bitrate=   2.3kbits/s speed=0.0232x elapsed=0:01:23.77    \nframe=   98 fps=1.2 q=26.0 size=       1KiB time=00:00:01.94 bitrate=   2.3kbits/s speed=0.023x elapsed=0:01:24.29    \nframe=   99 fps=1.2 q=29.0 size=       1KiB time=00:00:01.96 bitrate=   2.3kbits/s speed=0.0231x elapsed=0:01:24.80    \nframe=  101 fps=1.2 q=29.0 size=       1KiB time=00:00:02.00 bitrate=   2.2kbits/s speed=0.0234x elapsed=0:01:25.32    \nframe=  102 fps=1.2 q=26.0 size=       1KiB time=00:00:02.02 bitrate=   2.2kbits/s speed=0.0235x elapsed=0:01:25.83    \nframe=  102 fps=1.2 q=26.0 size=       1KiB time=00:00:02.02 bitrate=   2.2kbits/s speed=0.0234x elapsed=0:01:26.35    \nframe=  102 fps=1.2 q=26.0 size=       1KiB time=00:00:02.02 bitrate=   2.2kbits/s speed=0.0233x elapsed=0:01:26.86    \nframe=  103 fps=1.2 q=28.0 size=       1KiB time=00:00:02.04 bitrate=   2.2kbits/s speed=0.0233x elapsed=0:01:27.38    \nframe=  104 fps=1.2 q=26.0 size=       1KiB time=00:00:02.06 bitrate=   2.2kbits/s speed=0.0234x elapsed=0:01:27.90    \nframe=  105 fps=1.2 q=24.0 size=       1KiB time=00:00:02.08 bitrate=   2.2kbits/s speed=0.0235x elapsed=0:01:28.42    \nframe=  106 fps=1.2 q=27.0 size=       1KiB time=00:00:02.10 bitrate=   2.1kbits/s speed=0.0236x elapsed=0:01:28.94    \nframe=  107 fps=1.2 q=30.0 size=       1KiB time=00:00:02.12 bitrate=   2.1kbits/s speed=0.0237x elapsed=0:01:29.45    \nframe=  107 fps=1.2 q=30.0 size=       1KiB time=00:00:02.12 bitrate=   2.1kbits/s speed=0.0236x elapsed=0:01:29.98    \nframe=  108 fps=1.2 q=25.0 size=       1KiB time=00:00:02.14 bitrate=   2.1kbits/s speed=0.0236x elapsed=0:01:30.50    \nframe=  109 fps=1.2 q=27.0 size=       1KiB time=00:00:02.16 bitrate=   2.1kbits/s speed=0.0237x elapsed=0:01:31.01    \nframe=  110 fps=1.2 q=27.0 size=       1KiB time=00:00:02.18 bitrate=   2.1kbits/s speed=0.0238x elapsed=0:01:31.52    \nframe=  112 fps=1.2 q=27.0 size=       1KiB time=00:00:02.22 bitrate=   2.0kbits/s speed=0.0241x elapsed=0:01:32.04    \nframe=  113 fps=1.2 q=11.0 size=       1KiB time=00:00:02.24 bitrate=   2.0kbits/s speed=0.0242x elapsed=0:01:32.56    \nframe=  115 fps=1.2 q=30.0 size=       1KiB time=00:00:02.28 bitrate=   2.0kbits/s speed=0.0245x elapsed=0:01:33.06    \nframe=  115 fps=1.2 q=30.0 size=       1KiB time=00:00:02.28 bitrate=   2.0kbits/s speed=0.0244x elapsed=0:01:33.59    \nframe=  117 fps=1.2 q=29.0 size=       1KiB time=00:00:02.32 bitrate=   1.9kbits/s speed=0.0247x elapsed=0:01:34.10    \nframe=  118 fps=1.2 q=27.0 size=       1KiB time=00:00:02.34 bitrate=   1.9kbits/s speed=0.0247x elapsed=0:01:34.61    \nframe=  118 fps=1.2 q=27.0 size=       1KiB time=00:00:02.34 bitrate=   1.9kbits/s speed=0.0246x elapsed=0:01:35.13    \nframe=  118 fps=1.2 q=27.0 size=       1KiB time=00:00:02.34 bitrate=   1.9kbits/s speed=0.0245x elapsed=0:01:35.64    \nframe=  119 fps=1.2 q=29.0 size=       1KiB time=00:00:02.36 bitrate=   1.9kbits/s speed=0.0245x elapsed=0:01:36.16    \nframe=  119 fps=1.2 q=29.0 size=       1KiB time=00:00:02.36 bitrate=   1.9kbits/s speed=0.0244x elapsed=0:01:36.69    \nframe=  120 fps=1.2 q=27.0 size=       1KiB time=00:00:02.38 bitrate=   1.9kbits/s speed=0.0245x elapsed=0:01:37.21    \nframe=  122 fps=1.2 q=26.0 size=       1KiB time=00:00:02.42 bitrate=   1.9kbits/s speed=0.0248x elapsed=0:01:37.72    \nframe=  123 fps=1.3 q=28.0 size=       1KiB time=00:00:02.44 bitrate=   1.8kbits/s speed=0.0248x elapsed=0:01:38.24    \nframe=  123 fps=1.2 q=28.0 size=       1KiB time=00:00:02.44 bitrate=   1.8kbits/s speed=0.0247x elapsed=0:01:38.75    \nframe=  124 fps=1.2 q=23.0 size=       1KiB time=00:00:02.46 bitrate=   1.8kbits/s speed=0.0248x elapsed=0:01:39.28    \nframe=  125 fps=1.3 q=27.0 size=       1KiB time=00:00:02.48 bitrate=   1.8kbits/s speed=0.0249x elapsed=0:01:39.78    \nframe=  128 fps=1.3 q=26.0 size=       1KiB time=00:00:02.54 bitrate=   1.8kbits/s speed=0.0253x elapsed=0:01:40.30    \nframe=  129 fps=1.3 q=12.0 size=       1KiB time=00:00:02.56 bitrate=   1.8kbits/s speed=0.0254x elapsed=0:01:40.81    \nframe=  130 fps=1.3 q=27.0 size=       1KiB time=00:00:02.56 bitrate=   1.8kbits/s speed=0.0253x elapsed=0:01:41.34    \nframe=  130 fps=1.3 q=27.0 size=       1KiB time=00:00:02.58 bitrate=   1.7kbits/s speed=0.0253x elapsed=0:01:41.91    \nframe=  131 fps=1.3 q=28.0 size=       1KiB time=00:00:02.60 bitrate=   1.7kbits/s speed=0.0254x elapsed=0:01:42.43    \nframe=  132 fps=1.3 q=27.0 size=       1KiB time=00:00:02.62 bitrate=   1.7kbits/s speed=0.0254x elapsed=0:01:43.01    \nframe=  133 fps=1.3 q=28.0 size=       1KiB time=00:00:02.64 bitrate=   1.7kbits/s speed=0.0255x elapsed=0:01:43.58    \nframe=  134 fps=1.3 q=27.0 size=       1KiB time=00:00:02.66 bitrate=   1.7kbits/s speed=0.0255x elapsed=0:01:44.15    \nframe=  134 fps=1.3 q=27.0 size=       1KiB time=00:00:02.66 bitrate=   1.7kbits/s speed=0.0254x elapsed=0:01:44.67    \nframe=  135 fps=1.3 q=28.0 size=       1KiB time=00:00:02.68 bitrate=   1.7kbits/s speed=0.0255x elapsed=0:01:45.28    \nframe=  136 fps=1.3 q=27.0 size=       1KiB time=00:00:02.70 bitrate=   1.7kbits/s speed=0.0255x elapsed=0:01:45.83    \nframe=  138 fps=1.3 q=27.0 size=       1KiB time=00:00:02.74 bitrate=   1.6kbits/s speed=0.0258x elapsed=0:01:46.36    \nframe=  139 fps=1.3 q=29.0 size=       1KiB time=00:00:02.76 bitrate=   1.6kbits/s speed=0.0258x elapsed=0:01:46.88    \nframe=  140 fps=1.3 q=27.0 size=       1KiB time=00:00:02.78 bitrate=   1.6kbits/s speed=0.0259x elapsed=0:01:47.47    \nframe=  142 fps=1.3 q=27.0 size=       1KiB time=00:00:02.80 bitrate=   1.6kbits/s speed=0.0259x elapsed=0:01:48.12    \nframe=  143 fps=1.3 q=29.0 size=       1KiB time=00:00:02.84 bitrate=   1.6kbits/s speed=0.0261x elapsed=0:01:48.99    \nframe=  145 fps=1.3 q=13.0 size=       1KiB time=00:00:02.88 bitrate=   1.6kbits/s speed=0.0262x elapsed=0:01:49.94    \nframe=  146 fps=1.3 q=28.0 size=       1KiB time=00:00:02.90 bitrate=   1.6kbits/s speed=0.0262x elapsed=0:01:50.57    \nframe=  146 fps=1.3 q=28.0 size=       1KiB time=00:00:02.90 bitrate=   1.6kbits/s speed=0.0261x elapsed=0:01:51.08    \nframe=  147 fps=1.3 q=30.0 size=       1KiB time=00:00:02.92 bitrate=   1.5kbits/s speed=0.0262x elapsed=0:01:51.59    \nframe=  147 fps=1.3 q=30.0 size=       1KiB time=00:00:02.92 bitrate=   1.5kbits/s speed=0.026x elapsed=0:01:52.12    \nframe=  148 fps=1.3 q=28.0 size=       1KiB time=00:00:02.94 bitrate=   1.5kbits/s speed=0.0261x elapsed=0:01:52.63    \nframe=  149 fps=1.3 q=29.0 size=       1KiB time=00:00:02.96 bitrate=   1.5kbits/s speed=0.0262x elapsed=0:01:53.14    \nframe=  150 fps=1.3 q=27.0 size=       1KiB time=00:00:02.98 bitrate=   1.5kbits/s speed=0.0262x elapsed=0:01:53.66    \nframe=  150 fps=1.3 q=27.0 size=       1KiB time=00:00:02.98 bitrate=   1.5kbits/s speed=0.0261x elapsed=0:01:54.18    \nframe=  151 fps=1.3 q=28.0 size=       1KiB time=00:00:03.00 bitrate=   1.5kbits/s speed=0.0262x elapsed=0:01:54.70    \nframe=  151 fps=1.3 q=28.0 size=       1KiB time=00:00:03.00 bitrate=   1.5kbits/s speed=0.026x elapsed=0:01:55.20    \nframe=  153 fps=1.3 q=22.0 size=       1KiB time=00:00:03.04 bitrate=   1.5kbits/s speed=0.0263x elapsed=0:01:55.72    \nframe=  154 fps=1.3 q=27.0 size=       1KiB time=00:00:03.06 bitrate=   1.5kbits/s speed=0.0263x elapsed=0:01:56.24    \nframe=  155 fps=1.3 q=29.0 size=       1KiB time=00:00:03.08 bitrate=   1.5kbits/s speed=0.0264x elapsed=0:01:56.76    \nframe=  156 fps=1.3 q=23.0 size=       1KiB time=00:00:03.10 bitrate=   1.5kbits/s speed=0.0264x elapsed=0:01:57.28    \nframe=  156 fps=1.3 q=23.0 size=       1KiB time=00:00:03.10 bitrate=   1.5kbits/s speed=0.0263x elapsed=0:01:57.78    \nframe=  158 fps=1.3 q=27.0 size=       1KiB time=00:00:03.14 bitrate=   1.4kbits/s speed=0.0265x elapsed=0:01:58.31    \nframe=  160 fps=1.3 q=27.0 size=       1KiB time=00:00:03.18 bitrate=   1.4kbits/s speed=0.0268x elapsed=0:01:58.82    \nframe=  161 fps=1.3 q=12.0 size=       1KiB time=00:00:03.20 bitrate=   1.4kbits/s speed=0.0268x elapsed=0:01:59.33    \nframe=  161 fps=1.3 q=12.0 size=       1KiB time=00:00:03.20 bitrate=   1.4kbits/s speed=0.0267x elapsed=0:01:59.86    \nframe=  162 fps=1.3 q=24.0 size=       1KiB time=00:00:03.22 bitrate=   1.4kbits/s speed=0.0268x elapsed=0:02:00.36    \nframe=  162 fps=1.3 q=24.0 size=       1KiB time=00:00:03.22 bitrate=   1.4kbits/s speed=0.0266x elapsed=0:02:00.89    \nframe=  163 fps=1.3 q=30.0 size=       1KiB time=00:00:03.24 bitrate=   1.4kbits/s speed=0.0267x elapsed=0:02:01.40    \nframe=  164 fps=1.3 q=25.0 size=       1KiB time=00:00:03.26 bitrate=   1.4kbits/s speed=0.0267x elapsed=0:02:01.92    \nframe=  164 fps=1.3 q=25.0 size=       1KiB time=00:00:03.26 bitrate=   1.4kbits/s speed=0.0266x elapsed=0:02:02.43    \nframe=  165 fps=1.3 q=28.0 size=       1KiB time=00:00:03.28 bitrate=   1.4kbits/s speed=0.0267x elapsed=0:02:02.94    \nframe=  165 fps=1.3 q=28.0 size=       1KiB time=00:00:03.28 bitrate=   1.4kbits/s speed=0.0266x elapsed=0:02:03.46    \nframe=  166 fps=1.3 q=28.0 size=       1KiB time=00:00:03.30 bitrate=   1.4kbits/s speed=0.0266x elapsed=0:02:03.98    \nframe=  166 fps=1.3 q=28.0 size=       1KiB time=00:00:03.30 bitrate=   1.4kbits/s speed=0.0265x elapsed=0:02:04.49    \nframe=  168 fps=1.3 q=28.0 size=       1KiB time=00:00:03.34 bitrate=   1.3kbits/s speed=0.0267x elapsed=0:02:05.00    \nframe=  170 fps=1.4 q=29.0 size=       1KiB time=00:00:03.38 bitrate=   1.3kbits/s speed=0.0269x elapsed=0:02:05.51    \nframe=  171 fps=1.4 q=30.0 size=       1KiB time=00:00:03.40 bitrate=   1.3kbits/s speed=0.027x elapsed=0:02:06.04    \nframe=  172 fps=1.4 q=24.0 size=       1KiB time=00:00:03.42 bitrate=   1.3kbits/s speed=0.027x elapsed=0:02:06.55    \nframe=  173 fps=1.4 q=27.0 size=       1KiB time=00:00:03.44 bitrate=   1.3kbits/s speed=0.0271x elapsed=0:02:07.08    \nframe=  175 fps=1.4 q=28.0 size=       1KiB time=00:00:03.48 bitrate=   1.3kbits/s speed=0.0273x elapsed=0:02:07.59    \nframe=  176 fps=1.4 q=28.0 size=       1KiB time=00:00:03.50 bitrate=   1.3kbits/s speed=0.0273x elapsed=0:02:08.10    \nframe=  177 fps=1.4 q=12.0 size=       1KiB time=00:00:03.52 bitrate=   1.3kbits/s speed=0.0274x elapsed=0:02:08.62    \nframe=  178 fps=1.4 q=28.0 size=       1KiB time=00:00:03.54 bitrate=   1.3kbits/s speed=0.0274x elapsed=0:02:09.14    \nframe=  178 fps=1.4 q=28.0 size=       1KiB time=00:00:03.54 bitrate=   1.3kbits/s speed=0.0273x elapsed=0:02:09.65    \nframe=  180 fps=1.4 q=28.0 size=       1KiB time=00:00:03.58 bitrate=   1.3kbits/s speed=0.0275x elapsed=0:02:10.18    \nframe=  180 fps=1.4 q=28.0 size=       1KiB time=00:00:03.58 bitrate=   1.3kbits/s speed=0.0274x elapsed=0:02:10.70    \nframe=  181 fps=1.4 q=28.0 size=       1KiB time=00:00:03.60 bitrate=   1.2kbits/s speed=0.0274x elapsed=0:02:11.20    \nframe=  181 fps=1.4 q=28.0 size=       1KiB time=00:00:03.60 bitrate=   1.2kbits/s speed=0.0273x elapsed=0:02:11.72    \nframe=  181 fps=1.4 q=28.0 size=       1KiB time=00:00:03.60 bitrate=   1.2kbits/s speed=0.0272x elapsed=0:02:12.26    \nframe=  182 fps=1.4 q=27.0 size=       1KiB time=00:00:03.62 bitrate=   1.2kbits/s speed=0.0273x elapsed=0:02:12.78    \nframe=  182 fps=1.4 q=27.0 size=       1KiB time=00:00:03.62 bitrate=   1.2kbits/s speed=0.0272x elapsed=0:02:13.32    \nframe=  183 fps=1.4 q=27.0 size=       1KiB time=00:00:03.64 bitrate=   1.2kbits/s speed=0.0272x elapsed=0:02:13.92    \nframe=  184 fps=1.4 q=27.0 size=       1KiB time=00:00:03.66 bitrate=   1.2kbits/s speed=0.0272x elapsed=0:02:14.49    \nframe=  185 fps=1.4 q=20.0 size=       1KiB time=00:00:03.68 bitrate=   1.2kbits/s speed=0.0272x elapsed=0:02:15.05    \nframe=  185 fps=1.4 q=20.0 size=       1KiB time=00:00:03.68 bitrate=   1.2kbits/s speed=0.0271x elapsed=0:02:15.56    \nframe=  186 fps=1.4 q=28.0 size=       1KiB time=00:00:03.70 bitrate=   1.2kbits/s speed=0.0272x elapsed=0:02:16.09    \nframe=  186 fps=1.4 q=28.0 size=       1KiB time=00:00:03.70 bitrate=   1.2kbits/s speed=0.0271x elapsed=0:02:16.62    \nframe=  187 fps=1.4 q=28.0 size=       1KiB time=00:00:03.72 bitrate=   1.2kbits/s speed=0.0271x elapsed=0:02:17.13    \nframe=  187 fps=1.4 q=28.0 size=       1KiB time=00:00:03.72 bitrate=   1.2kbits/s speed=0.027x elapsed=0:02:17.65    \nframe=  189 fps=1.4 q=27.0 size=       1KiB time=00:00:03.74 bitrate=   1.2kbits/s speed=0.0271x elapsed=0:02:18.18    \nframe=  190 fps=1.4 q=28.0 size=       1KiB time=00:00:03.78 bitrate=   1.2kbits/s speed=0.0272x elapsed=0:02:18.71    \nframe=  190 fps=1.4 q=28.0 size=       1KiB time=00:00:03.78 bitrate=   1.2kbits/s speed=0.0271x elapsed=0:02:19.25    \nframe=  191 fps=1.4 q=28.0 size=       1KiB time=00:00:03.80 bitrate=   1.2kbits/s speed=0.0272x elapsed=0:02:19.78    \nframe=  191 fps=1.4 q=28.0 size=       1KiB time=00:00:03.80 bitrate=   1.2kbits/s speed=0.0271x elapsed=0:02:20.30    \nframe=  193 fps=1.4 q=13.0 size=       1KiB time=00:00:03.84 bitrate=   1.2kbits/s speed=0.0273x elapsed=0:02:20.81    \nframe=  194 fps=1.4 q=28.0 size=       1KiB time=00:00:03.86 bitrate=   1.2kbits/s speed=0.0273x elapsed=0:02:21.34    \nframe=  194 fps=1.4 q=28.0 size=       1KiB time=00:00:03.86 bitrate=   1.2kbits/s speed=0.0272x elapsed=0:02:21.85    \nframe=  194 fps=1.4 q=28.0 size=       1KiB time=00:00:03.86 bitrate=   1.2kbits/s speed=0.0271x elapsed=0:02:22.36    \nframe=  195 fps=1.4 q=28.0 size=       1KiB time=00:00:03.88 bitrate=   1.2kbits/s speed=0.0272x elapsed=0:02:22.88    \nframe=  195 fps=1.4 q=28.0 size=       1KiB time=00:00:03.88 bitrate=   1.2kbits/s speed=0.0271x elapsed=0:02:23.41    \nframe=  196 fps=1.4 q=28.0 size=       1KiB time=00:00:03.90 bitrate=   1.2kbits/s speed=0.0271x elapsed=0:02:23.92    \nframe=  197 fps=1.4 q=29.0 size=       1KiB time=00:00:03.92 bitrate=   1.1kbits/s speed=0.0271x elapsed=0:02:24.44    \nframe=  197 fps=1.4 q=29.0 size=       1KiB time=00:00:03.92 bitrate=   1.1kbits/s speed=0.027x elapsed=0:02:24.97    \nframe=  197 fps=1.4 q=29.0 size=       1KiB time=00:00:03.92 bitrate=   1.1kbits/s speed=0.0269x elapsed=0:02:25.48    \nframe=  198 fps=1.4 q=28.0 size=       1KiB time=00:00:03.94 bitrate=   1.1kbits/s speed=0.027x elapsed=0:02:26.01    \nframe=  198 fps=1.4 q=28.0 size=       1KiB time=00:00:03.94 bitrate=   1.1kbits/s speed=0.0269x elapsed=0:02:26.54    \nframe=  199 fps=1.4 q=28.0 size=       1KiB time=00:00:03.96 bitrate=   1.1kbits/s speed=0.0269x elapsed=0:02:27.05    \nframe=  199 fps=1.3 q=28.0 size=       1KiB time=00:00:03.96 bitrate=   1.1kbits/s speed=0.0268x elapsed=0:02:27.57    \nframe=  200 fps=1.4 q=28.0 size=       1KiB time=00:00:03.98 bitrate=   1.1kbits/s speed=0.0269x elapsed=0:02:28.10    \nframe=  201 fps=1.4 q=20.0 size=       1KiB time=00:00:04.00 bitrate=   1.1kbits/s speed=0.0269x elapsed=0:02:28.62    \nframe=  202 fps=1.4 q=27.0 size=       1KiB time=00:00:04.02 bitrate=   1.1kbits/s speed=0.0269x elapsed=0:02:29.16    \nframe=  202 fps=1.3 q=27.0 size=       1KiB time=00:00:04.02 bitrate=   1.1kbits/s speed=0.0269x elapsed=0:02:29.69    \nframe=  202 fps=1.3 q=27.0 size=       1KiB time=00:00:04.02 bitrate=   1.1kbits/s speed=0.0268x elapsed=0:02:30.20    \nframe=  203 fps=1.3 q=27.0 size=       1KiB time=00:00:04.04 bitrate=   1.1kbits/s speed=0.0268x elapsed=0:02:30.72    \nframe=  203 fps=1.3 q=27.0 size=       1KiB time=00:00:04.04 bitrate=   1.1kbits/s speed=0.0267x elapsed=0:02:31.25    \nframe=  204 fps=1.3 q=27.0 size=       1KiB time=00:00:04.06 bitrate=   1.1kbits/s speed=0.0268x elapsed=0:02:31.77    \nframe=  206 fps=1.4 q=28.0 size=       1KiB time=00:00:04.10 bitrate=   1.1kbits/s speed=0.0269x elapsed=0:02:32.31    \nframe=  207 fps=1.4 q=28.0 size=       1KiB time=00:00:04.12 bitrate=   1.1kbits/s speed=0.027x elapsed=0:02:32.81    \nframe=  208 fps=1.4 q=28.0 size=       1KiB time=00:00:04.14 bitrate=   1.1kbits/s speed=0.027x elapsed=0:02:33.35    \nframe=  208 fps=1.4 q=28.0 size=       1KiB time=00:00:04.14 bitrate=   1.1kbits/s speed=0.0269x elapsed=0:02:33.88    \nframe=  209 fps=1.4 q=13.0 size=       1KiB time=00:00:04.16 bitrate=   1.1kbits/s speed=0.0269x elapsed=0:02:34.41    \nframe=  209 fps=1.3 q=13.0 size=       1KiB time=00:00:04.16 bitrate=   1.1kbits/s speed=0.0268x elapsed=0:02:34.94    \nframe=  210 fps=1.4 q=28.0 size=       1KiB time=00:00:04.18 bitrate=   1.1kbits/s speed=0.0269x elapsed=0:02:35.46    \nframe=  210 fps=1.3 q=28.0 size=       1KiB time=00:00:04.18 bitrate=   1.1kbits/s speed=0.0268x elapsed=0:02:35.99    \nframe=  210 fps=1.3 q=28.0 size=       1KiB time=00:00:04.18 bitrate=   1.1kbits/s speed=0.0267x elapsed=0:02:36.52    \nframe=  210 fps=1.3 q=28.0 size=       1KiB time=00:00:04.18 bitrate=   1.1kbits/s speed=0.0266x elapsed=0:02:37.05    \nframe=  211 fps=1.3 q=28.0 size=       1KiB time=00:00:04.20 bitrate=   1.1kbits/s speed=0.0267x elapsed=0:02:37.56    \nframe=  211 fps=1.3 q=28.0 size=       1KiB time=00:00:04.20 bitrate=   1.1kbits/s speed=0.0266x elapsed=0:02:38.11    \nframe=  212 fps=1.3 q=28.0 size=       1KiB time=00:00:04.22 bitrate=   1.1kbits/s speed=0.0266x elapsed=0:02:38.64    \nframe=  212 fps=1.3 q=28.0 size=       1KiB time=00:00:04.22 bitrate=   1.1kbits/s speed=0.0265x elapsed=0:02:39.17    \nframe=  212 fps=1.3 q=28.0 size=       1KiB time=00:00:04.22 bitrate=   1.1kbits/s speed=0.0264x elapsed=0:02:39.71    \nframe=  213 fps=1.3 q=29.0 size=       1KiB time=00:00:04.24 bitrate=   1.1kbits/s speed=0.0265x elapsed=0:02:40.25    \nframe=  213 fps=1.3 q=29.0 size=       1KiB time=00:00:04.24 bitrate=   1.1kbits/s speed=0.0264x elapsed=0:02:40.78    \nframe=  213 fps=1.3 q=29.0 size=       1KiB time=00:00:04.24 bitrate=   1.1kbits/s speed=0.0263x elapsed=0:02:41.31    \nframe=  213 fps=1.3 q=29.0 size=       1KiB time=00:00:04.24 bitrate=   1.1kbits/s speed=0.0262x elapsed=0:02:41.84    \nframe=  213 fps=1.3 q=29.0 size=       1KiB time=00:00:04.24 bitrate=   1.1kbits/s speed=0.0261x elapsed=0:02:42.36    \nframe=  214 fps=1.3 q=28.0 size=       1KiB time=00:00:04.26 bitrate=   1.1kbits/s speed=0.0262x elapsed=0:02:42.89    \nframe=  214 fps=1.3 q=28.0 size=       1KiB time=00:00:04.26 bitrate=   1.1kbits/s speed=0.0261x elapsed=0:02:43.41    \nframe=  215 fps=1.3 q=28.0 size=       1KiB time=00:00:04.28 bitrate=   1.1kbits/s speed=0.0261x elapsed=0:02:43.93    \nframe=  217 fps=1.3 q=20.0 size=       1KiB time=00:00:04.30 bitrate=   1.0kbits/s speed=0.0261x elapsed=0:02:44.45    \nframe=  217 fps=1.3 q=20.0 size=       1KiB time=00:00:04.32 bitrate=   1.0kbits/s speed=0.0262x elapsed=0:02:44.97    \nframe=  217 fps=1.3 q=20.0 size=       1KiB time=00:00:04.32 bitrate=   1.0kbits/s speed=0.0261x elapsed=0:02:45.49    \nframe=  218 fps=1.3 q=28.0 size=       1KiB time=00:00:04.34 bitrate=   1.0kbits/s speed=0.0261x elapsed=0:02:46.01    \nframe=  218 fps=1.3 q=28.0 size=       1KiB time=00:00:04.34 bitrate=   1.0kbits/s speed=0.0261x elapsed=0:02:46.53    \nframe=  219 fps=1.3 q=29.0 size=       1KiB time=00:00:04.36 bitrate=   1.0kbits/s speed=0.0261x elapsed=0:02:47.05    \nframe=  220 fps=1.3 q=25.0 size=       1KiB time=00:00:04.38 bitrate=   1.0kbits/s speed=0.0261x elapsed=0:02:47.58    \nframe=  221 fps=1.3 q=28.0 size=       1KiB time=00:00:04.40 bitrate=   1.0kbits/s speed=0.0262x elapsed=0:02:48.10    \nframe=  223 fps=1.3 q=29.0 size=       1KiB time=00:00:04.44 bitrate=   1.0kbits/s speed=0.0263x elapsed=0:02:48.63    \nframe=  224 fps=1.3 q=28.0 size=       1KiB time=00:00:04.46 bitrate=   1.0kbits/s speed=0.0264x elapsed=0:02:49.14    \nframe=  224 fps=1.3 q=28.0 size=       1KiB time=00:00:04.46 bitrate=   1.0kbits/s speed=0.0263x elapsed=0:02:49.67    \nframe=  225 fps=1.3 q=13.0 size=       1KiB time=00:00:04.48 bitrate=   1.0kbits/s speed=0.0263x elapsed=0:02:50.19    \nframe=  226 fps=1.3 q=28.0 size=       1KiB time=00:00:04.50 bitrate=   1.0kbits/s speed=0.0264x elapsed=0:02:50.71    \nframe=  226 fps=1.3 q=28.0 size=       1KiB time=00:00:04.50 bitrate=   1.0kbits/s speed=0.0263x elapsed=0:02:51.25    \nframe=  226 fps=1.3 q=28.0 size=       1KiB time=00:00:04.50 bitrate=   1.0kbits/s speed=0.0262x elapsed=0:02:51.75    \nframe=  226 fps=1.3 q=28.0 size=       1KiB time=00:00:04.50 bitrate=   1.0kbits/s speed=0.0261x elapsed=0:02:52.30    \nframe=  227 fps=1.3 q=28.0 size=       1KiB time=00:00:04.52 bitrate=   1.0kbits/s speed=0.0261x elapsed=0:02:52.88    \nframe=  228 fps=1.3 q=28.0 size=       1KiB time=00:00:04.52 bitrate=   1.0kbits/s speed=0.0261x elapsed=0:02:53.50    \nframe=  228 fps=1.3 q=28.0 size=       1KiB time=00:00:04.54 bitrate=   1.0kbits/s speed=0.0261x elapsed=0:02:54.07    \nframe=  229 fps=1.3 q=29.0 size=       1KiB time=00:00:04.56 bitrate=   1.0kbits/s speed=0.0261x elapsed=0:02:54.65    \nframe=  229 fps=1.3 q=29.0 size=       1KiB time=00:00:04.56 bitrate=   1.0kbits/s speed=0.026x elapsed=0:02:55.22    \nframe=  229 fps=1.3 q=29.0 size=       1KiB time=00:00:04.56 bitrate=   1.0kbits/s speed=0.0259x elapsed=0:02:55.78    \nframe=  229 fps=1.3 q=29.0 size=       1KiB time=00:00:04.56 bitrate=   1.0kbits/s speed=0.0259x elapsed=0:02:56.34    \nframe=  230 fps=1.3 q=27.0 size=       1KiB time=00:00:04.58 bitrate=   1.0kbits/s speed=0.0259x elapsed=0:02:56.91    \nframe=  230 fps=1.3 q=27.0 size=       1KiB time=00:00:04.58 bitrate=   1.0kbits/s speed=0.0258x elapsed=0:02:57.46    \nframe=  231 fps=1.3 q=27.0 size=       1KiB time=00:00:04.60 bitrate=   1.0kbits/s speed=0.0258x elapsed=0:02:58.02    \nframe=  233 fps=1.3 q=22.0 size=       1KiB time=00:00:04.64 bitrate=   1.0kbits/s speed=0.026x elapsed=0:02:58.58    \nframe=  233 fps=1.3 q=22.0 size=       1KiB time=00:00:04.64 bitrate=   1.0kbits/s speed=0.0259x elapsed=0:02:59.15    \nframe=  234 fps=1.3 q=28.0 size=       1KiB time=00:00:04.66 bitrate=   1.0kbits/s speed=0.0259x elapsed=0:02:59.72    \nframe=  234 fps=1.3 q=28.0 size=       1KiB time=00:00:04.66 bitrate=   1.0kbits/s speed=0.0258x elapsed=0:03:00.29    \nframe=  235 fps=1.3 q=28.0 size=       1KiB time=00:00:04.68 bitrate=   1.0kbits/s speed=0.0259x elapsed=0:03:00.85    \nframe=  235 fps=1.3 q=28.0 size=       1KiB time=00:00:04.68 bitrate=   1.0kbits/s speed=0.0258x elapsed=0:03:01.43    \nframe=  236 fps=1.3 q=28.0 size=       1KiB time=00:00:04.70 bitrate=   1.0kbits/s speed=0.0258x elapsed=0:03:02.02    \nframe=  236 fps=1.3 q=28.0 size=       1KiB time=00:00:04.70 bitrate=   1.0kbits/s speed=0.0257x elapsed=0:03:02.61    \nframe=  237 fps=1.3 q=28.0 size=       1KiB time=00:00:04.72 bitrate=   1.0kbits/s speed=0.0258x elapsed=0:03:03.17    \nframe=  239 fps=1.3 q=28.0 size=       1KiB time=00:00:04.76 bitrate=   0.9kbits/s speed=0.0259x elapsed=0:03:03.76    \nframe=  239 fps=1.3 q=28.0 size=       1KiB time=00:00:04.76 bitrate=   0.9kbits/s speed=0.0258x elapsed=0:03:04.33    \nframe=  240 fps=1.3 q=28.0 size=       1KiB time=00:00:04.78 bitrate=   0.9kbits/s speed=0.0258x elapsed=0:03:04.92    \nframe=  240 fps=1.3 q=28.0 size=       1KiB time=00:00:04.78 bitrate=   0.9kbits/s speed=0.0258x elapsed=0:03:05.52    \nframe=  241 fps=1.3 q=16.0 size=       1KiB time=00:00:04.80 bitrate=   0.9kbits/s speed=0.0258x elapsed=0:03:06.25    \nframe=  243 fps=1.3 q=28.0 size=       1KiB time=00:00:04.82 bitrate=   0.9kbits/s speed=0.0257x elapsed=0:03:07.36    \nframe=  245 fps=1.3 q=29.0 size=       1KiB time=00:00:04.88 bitrate=   0.9kbits/s speed=0.0259x elapsed=0:03:08.48    \nframe=  246 fps=1.3 q=28.0 size=       1KiB time=00:00:04.90 bitrate=   0.9kbits/s speed=0.0258x elapsed=0:03:09.68    \nframe=  247 fps=1.3 q=28.0 size=       1KiB time=00:00:04.92 bitrate=   0.9kbits/s speed=0.0258x elapsed=0:03:10.82    \nframe=  249 fps=1.3 q=21.0 size=       1KiB time=00:00:04.96 bitrate=   0.9kbits/s speed=0.0259x elapsed=0:03:11.33    \nframe=  249 fps=1.3 q=21.0 size=       1KiB time=00:00:04.96 bitrate=   0.9kbits/s speed=0.0259x elapsed=0:03:11.84    \nframe=  250 fps=1.3 q=28.0 size=       1KiB time=00:00:04.98 bitrate=   0.9kbits/s speed=0.0259x elapsed=0:03:12.37    \nframe=  250 fps=1.3 q=28.0 size=       1KiB time=00:00:04.98 bitrate=   0.9kbits/s speed=0.0258x elapsed=0:03:12.88    \nframe=  250 fps=1.3 q=28.0 size=       1KiB time=00:00:04.98 bitrate=   0.9kbits/s speed=0.0257x elapsed=0:03:13.39    \nframe=  251 fps=1.3 q=28.0 size=       1KiB time=00:00:05.00 bitrate=   0.9kbits/s speed=0.0258x elapsed=0:03:13.91    \nframe=  252 fps=1.3 q=24.0 size=       1KiB time=00:00:05.02 bitrate=   0.9kbits/s speed=0.0258x elapsed=0:03:14.43    \nframe=  255 fps=1.3 q=28.0 size=    4864KiB time=00:00:05.08 bitrate=7843.7kbits/s speed=0.0261x elapsed=0:03:14.95    \nframe=  255 fps=1.3 q=28.0 size=    4864KiB time=00:00:05.08 bitrate=7843.7kbits/s speed=0.026x elapsed=0:03:15.46    \nframe=  256 fps=1.3 q=28.0 size=    4864KiB time=00:00:05.10 bitrate=7812.9kbits/s speed=0.026x elapsed=0:03:15.98    \nframe=  256 fps=1.3 q=28.0 size=    4864KiB time=00:00:05.10 bitrate=7812.9kbits/s speed=0.026x elapsed=0:03:16.48    \nframe=  257 fps=1.3 q=15.0 size=    4864KiB time=00:00:05.12 bitrate=7782.4kbits/s speed=0.026x elapsed=0:03:17.01    \nframe=  258 fps=1.3 q=28.0 size=    4864KiB time=00:00:05.14 bitrate=7752.1kbits/s speed=0.026x elapsed=0:03:17.52    \nframe=  258 fps=1.3 q=28.0 size=    4864KiB time=00:00:05.14 bitrate=7752.1kbits/s speed=0.026x elapsed=0:03:18.04    \nframe=  260 fps=1.3 q=28.0 size=    4864KiB time=00:00:05.18 bitrate=7692.3kbits/s speed=0.0261x elapsed=0:03:18.55    \nframe=  261 fps=1.3 q=29.0 size=    4864KiB time=00:00:05.20 bitrate=7662.7kbits/s speed=0.0261x elapsed=0:03:19.07    \nframe=  261 fps=1.3 q=29.0 size=    4864KiB time=00:00:05.20 bitrate=7662.7kbits/s speed=0.0261x elapsed=0:03:19.59    \nframe=  262 fps=1.3 q=28.0 size=    4864KiB time=00:00:05.22 bitrate=7633.3kbits/s speed=0.0261x elapsed=0:03:20.10    \nframe=  262 fps=1.3 q=28.0 size=    4864KiB time=00:00:05.22 bitrate=7633.3kbits/s speed=0.026x elapsed=0:03:20.61    \nframe=  264 fps=1.3 q=28.0 size=    4864KiB time=00:00:05.26 bitrate=7575.3kbits/s speed=0.0262x elapsed=0:03:21.12    \nframe=  265 fps=1.3 q=21.0 size=    4864KiB time=00:00:05.28 bitrate=7546.6kbits/s speed=0.0262x elapsed=0:03:21.64    \nframe=  266 fps=1.3 q=28.0 size=    4864KiB time=00:00:05.30 bitrate=7518.1kbits/s speed=0.0262x elapsed=0:03:22.16    \nframe=  266 fps=1.3 q=28.0 size=    4864KiB time=00:00:05.30 bitrate=7518.1kbits/s speed=0.0261x elapsed=0:03:22.68    \nframe=  268 fps=1.3 q=28.0 size=    4864KiB time=00:00:05.34 bitrate=7461.8kbits/s speed=0.0263x elapsed=0:03:23.20    \nframe=  269 fps=1.3 q=28.0 size=    4864KiB time=00:00:05.36 bitrate=7433.9kbits/s speed=0.0263x elapsed=0:03:23.70    \nframe=  269 fps=1.3 q=28.0 size=    4864KiB time=00:00:05.36 bitrate=7433.9kbits/s speed=0.0262x elapsed=0:03:24.23    \nframe=  271 fps=1.3 q=27.0 size=    4864KiB time=00:00:05.40 bitrate=7378.9kbits/s speed=0.0264x elapsed=0:03:24.74    \nframe=  272 fps=1.3 q=21.0 size=    4864KiB time=00:00:05.42 bitrate=7351.6kbits/s speed=0.0264x elapsed=0:03:25.26    \nframe=  272 fps=1.3 q=21.0 size=    4864KiB time=00:00:05.42 bitrate=7351.6kbits/s speed=0.0263x elapsed=0:03:25.76    \nframe=  273 fps=1.3 q=14.0 size=    4864KiB time=00:00:05.44 bitrate=7324.6kbits/s speed=0.0264x elapsed=0:03:26.29    \nframe=  274 fps=1.3 q=28.0 size=    4864KiB time=00:00:05.46 bitrate=7297.8kbits/s speed=0.0264x elapsed=0:03:26.80    \nframe=  274 fps=1.3 q=28.0 size=    4864KiB time=00:00:05.46 bitrate=7297.8kbits/s speed=0.0263x elapsed=0:03:27.32    \nframe=  274 fps=1.3 q=28.0 size=    4864KiB time=00:00:05.46 bitrate=7297.8kbits/s speed=0.0263x elapsed=0:03:27.83    \nframe=  275 fps=1.3 q=28.0 size=    4864KiB time=00:00:05.48 bitrate=7271.1kbits/s speed=0.0263x elapsed=0:03:28.34    \nframe=  277 fps=1.3 q=29.0 size=    4864KiB time=00:00:05.52 bitrate=7218.5kbits/s speed=0.0264x elapsed=0:03:28.87    \nframe=  277 fps=1.3 q=29.0 size=    4864KiB time=00:00:05.52 bitrate=7218.5kbits/s speed=0.0264x elapsed=0:03:29.38    \nframe=  278 fps=1.3 q=28.0 size=    4864KiB time=00:00:05.54 bitrate=7192.4kbits/s speed=0.0264x elapsed=0:03:29.89    \nframe=  279 fps=1.3 q=28.0 size=    4864KiB time=00:00:05.56 bitrate=7166.5kbits/s speed=0.0264x elapsed=0:03:30.42    \nframe=  279 fps=1.3 q=28.0 size=    4864KiB time=00:00:05.56 bitrate=7166.5kbits/s speed=0.0264x elapsed=0:03:30.93    \nframe=  281 fps=1.3 q=23.0 size=    4864KiB time=00:00:05.60 bitrate=7115.3kbits/s speed=0.0265x elapsed=0:03:31.44    \nframe=  282 fps=1.3 q=28.0 size=    4864KiB time=00:00:05.62 bitrate=7090.0kbits/s speed=0.0265x elapsed=0:03:31.96    \nframe=  282 fps=1.3 q=28.0 size=    4864KiB time=00:00:05.62 bitrate=7090.0kbits/s speed=0.0265x elapsed=0:03:32.47    \nframe=  283 fps=1.3 q=28.0 size=    4864KiB time=00:00:05.64 bitrate=7064.9kbits/s speed=0.0265x elapsed=0:03:32.99    \nframe=  283 fps=1.3 q=28.0 size=    4864KiB time=00:00:05.64 bitrate=7064.9kbits/s speed=0.0264x elapsed=0:03:33.51    \nframe=  284 fps=1.3 q=28.0 size=    4864KiB time=00:00:05.66 bitrate=7039.9kbits/s speed=0.0264x elapsed=0:03:34.02    \nframe=  285 fps=1.3 q=28.0 size=    4864KiB time=00:00:05.68 bitrate=7015.1kbits/s speed=0.0265x elapsed=0:03:34.53    \nframe=  287 fps=1.3 q=27.0 size=    4864KiB time=00:00:05.72 bitrate=6966.1kbits/s speed=0.0266x elapsed=0:03:35.06    \nframe=  287 fps=1.3 q=27.0 size=    4864KiB time=00:00:05.72 bitrate=6966.1kbits/s speed=0.0265x elapsed=0:03:35.57    \nframe=  288 fps=1.3 q=28.0 size=    4864KiB time=00:00:05.74 bitrate=6941.8kbits/s speed=0.0266x elapsed=0:03:36.08    \nframe=  288 fps=1.3 q=28.0 size=    4864KiB time=00:00:05.74 bitrate=6941.8kbits/s speed=0.0265x elapsed=0:03:36.60    \nframe=  289 fps=1.3 q=15.0 size=    4864KiB time=00:00:05.76 bitrate=6917.7kbits/s speed=0.0265x elapsed=0:03:37.12    \nframe=  290 fps=1.3 q=29.0 size=    4864KiB time=00:00:05.78 bitrate=6893.8kbits/s speed=0.0266x elapsed=0:03:37.63    \nframe=  291 fps=1.3 q=29.0 size=    4864KiB time=00:00:05.80 bitrate=6870.0kbits/s speed=0.0266x elapsed=0:03:38.14    \nframe=  292 fps=1.3 q=29.0 size=    4864KiB time=00:00:05.82 bitrate=6846.4kbits/s speed=0.0266x elapsed=0:03:38.66    \nframe=  293 fps=1.3 q=30.0 size=    4864KiB time=00:00:05.84 bitrate=6822.9kbits/s speed=0.0266x elapsed=0:03:39.18    \nframe=  294 fps=1.3 q=28.0 size=    4864KiB time=00:00:05.86 bitrate=6799.6kbits/s speed=0.0267x elapsed=0:03:39.70    \nframe=  296 fps=1.3 q=28.0 size=    4864KiB time=00:00:05.90 bitrate=6753.5kbits/s speed=0.0268x elapsed=0:03:40.21    \nframe=  297 fps=1.3 q=25.0 size=    4864KiB time=00:00:05.92 bitrate=6730.7kbits/s speed=0.0268x elapsed=0:03:40.72    \nframe=  298 fps=1.3 q=29.0 size=    4864KiB time=00:00:05.94 bitrate=6708.1kbits/s speed=0.0268x elapsed=0:03:41.24    \nframe=  298 fps=1.3 q=29.0 size=    4864KiB time=00:00:05.94 bitrate=6708.1kbits/s speed=0.0268x elapsed=0:03:41.76    \nframe=  299 fps=1.3 q=29.0 size=    4864KiB time=00:00:05.96 bitrate=6685.6kbits/s speed=0.0268x elapsed=0:03:42.27    \nframe=  300 fps=1.3 q=27.0 size=    4864KiB time=00:00:05.98 bitrate=6663.2kbits/s speed=0.0268x elapsed=0:03:42.79    \nframe=  301 fps=1.3 q=29.0 size=    4864KiB time=00:00:06.00 bitrate=6641.0kbits/s speed=0.0269x elapsed=0:03:43.30    \nframe=  302 fps=1.3 q=28.0 size=    4864KiB time=00:00:06.02 bitrate=6618.9kbits/s speed=0.0269x elapsed=0:03:43.82    \nframe=  303 fps=1.4 q=27.0 size=    4864KiB time=00:00:06.04 bitrate=6597.0kbits/s speed=0.0269x elapsed=0:03:44.33    \nframe=  304 fps=1.4 q=28.0 size=    4864KiB time=00:00:06.06 bitrate=6575.2kbits/s speed=0.027x elapsed=0:03:44.84    \nframe=  305 fps=1.4 q=14.0 size=    4864KiB time=00:00:06.08 bitrate=6553.6kbits/s speed=0.027x elapsed=0:03:45.37    \nframe=  306 fps=1.4 q=28.0 size=    4864KiB time=00:00:06.10 bitrate=6532.1kbits/s speed=0.027x elapsed=0:03:45.88    \nframe=  308 fps=1.4 q=28.0 size=    4864KiB time=00:00:06.14 bitrate=6489.6kbits/s speed=0.0271x elapsed=0:03:46.40    \nframe=  308 fps=1.4 q=28.0 size=    4864KiB time=00:00:06.14 bitrate=6489.6kbits/s speed=0.0271x elapsed=0:03:46.97    \nframe=  309 fps=1.4 q=28.0 size=    4864KiB time=00:00:06.16 bitrate=6468.5kbits/s speed=0.0271x elapsed=0:03:47.53    \nframe=  309 fps=1.4 q=28.0 size=    4864KiB time=00:00:06.16 bitrate=6468.5kbits/s speed=0.027x elapsed=0:03:48.05    \nframe=  310 fps=1.4 q=28.0 size=    4864KiB time=00:00:06.18 bitrate=6447.6kbits/s speed=0.027x elapsed=0:03:48.58    \nframe=  311 fps=1.4 q=28.0 size=    4864KiB time=00:00:06.20 bitrate=6426.8kbits/s speed=0.0271x elapsed=0:03:49.12    \nframe=  312 fps=1.4 q=28.0 size=    4864KiB time=00:00:06.22 bitrate=6406.1kbits/s speed=0.0271x elapsed=0:03:49.63    \nframe=  313 fps=1.4 q=26.0 size=    4864KiB time=00:00:06.24 bitrate=6385.6kbits/s speed=0.0271x elapsed=0:03:50.20    \nframe=  313 fps=1.4 q=26.0 size=    4864KiB time=00:00:06.24 bitrate=6385.6kbits/s speed=0.027x elapsed=0:03:50.72    \nframe=  314 fps=1.4 q=28.0 size=    4864KiB time=00:00:06.26 bitrate=6365.2kbits/s speed=0.0271x elapsed=0:03:51.28    \nframe=  316 fps=1.4 q=21.0 size=    4864KiB time=00:00:06.30 bitrate=6324.7kbits/s speed=0.0272x elapsed=0:03:51.82    \nframe=  317 fps=1.4 q=28.0 size=    4864KiB time=00:00:06.32 bitrate=6304.7kbits/s speed=0.0272x elapsed=0:03:52.35    \nframe=  317 fps=1.4 q=28.0 size=    4864KiB time=00:00:06.32 bitrate=6304.7kbits/s speed=0.0271x elapsed=0:03:52.87    \nframe=  318 fps=1.4 q=26.0 size=    4864KiB time=00:00:06.34 bitrate=6284.8kbits/s speed=0.0272x elapsed=0:03:53.42    \nframe=  318 fps=1.4 q=26.0 size=    4864KiB time=00:00:06.34 bitrate=6284.8kbits/s speed=0.0271x elapsed=0:03:53.93    \nframe=  319 fps=1.4 q=24.0 size=    4864KiB time=00:00:06.36 bitrate=6265.1kbits/s speed=0.0271x elapsed=0:03:54.44    \nframe=  321 fps=1.4 q=21.0 size=    4864KiB time=00:00:06.40 bitrate=6225.9kbits/s speed=0.0272x elapsed=0:03:54.95    \nframe=  322 fps=1.4 q=5.0 size=    4864KiB time=00:00:06.42 bitrate=6206.5kbits/s speed=0.0273x elapsed=0:03:55.49    \nframe=  323 fps=1.4 q=32.0 size=    6144KiB time=00:00:06.44 bitrate=7815.5kbits/s speed=0.0273x elapsed=0:03:56.00    \nframe=  323 fps=1.4 q=32.0 size=    6144KiB time=00:00:06.44 bitrate=7815.5kbits/s speed=0.0272x elapsed=0:03:56.53    \nframe=  324 fps=1.4 q=32.0 size=    6144KiB time=00:00:06.46 bitrate=7791.3kbits/s speed=0.0272x elapsed=0:03:57.09    \nframe=  325 fps=1.4 q=32.0 size=    6144KiB time=00:00:06.48 bitrate=7767.2kbits/s speed=0.0273x elapsed=0:03:57.62    \nframe=  326 fps=1.4 q=29.0 size=    6144KiB time=00:00:06.50 bitrate=7743.3kbits/s speed=0.0273x elapsed=0:03:58.14    \nframe=  326 fps=1.4 q=29.0 size=    6144KiB time=00:00:06.50 bitrate=7743.3kbits/s speed=0.0272x elapsed=0:03:58.72    \nframe=  327 fps=1.4 q=30.0 size=    6144KiB time=00:00:06.52 bitrate=7719.6kbits/s speed=0.0272x elapsed=0:03:59.32    \nframe=  327 fps=1.4 q=30.0 size=    6144KiB time=00:00:06.52 bitrate=7719.6kbits/s speed=0.0272x elapsed=0:03:59.94    \nframe=  328 fps=1.4 q=30.0 size=    6144KiB time=00:00:06.54 bitrate=7696.0kbits/s speed=0.0272x elapsed=0:04:00.48    \nframe=  330 fps=1.4 q=21.0 size=    6144KiB time=00:00:06.58 bitrate=7649.2kbits/s speed=0.0273x elapsed=0:04:01.01    \nframe=  330 fps=1.4 q=21.0 size=    6144KiB time=00:00:06.58 bitrate=7649.2kbits/s speed=0.0272x elapsed=0:04:01.52    \nframe=  331 fps=1.4 q=30.0 size=    6144KiB time=00:00:06.60 bitrate=7626.0kbits/s speed=0.0273x elapsed=0:04:02.08    \nframe=  332 fps=1.4 q=32.0 size=    6144KiB time=00:00:06.62 bitrate=7603.0kbits/s speed=0.0273x elapsed=0:04:02.63    \nframe=  333 fps=1.4 q=27.0 size=    6144KiB time=00:00:06.64 bitrate=7580.1kbits/s speed=0.0273x elapsed=0:04:03.21    \nframe=  334 fps=1.4 q=29.0 size=    6144KiB time=00:00:06.66 bitrate=7557.3kbits/s speed=0.0273x elapsed=0:04:03.76    \nframe=  336 fps=1.4 q=30.0 size=    6144KiB time=00:00:06.70 bitrate=7512.2kbits/s speed=0.0274x elapsed=0:04:04.34    \nframe=  336 fps=1.4 q=30.0 size=    6144KiB time=00:00:06.70 bitrate=7512.2kbits/s speed=0.0274x elapsed=0:04:04.93    \nframe=  338 fps=1.4 q=14.0 size=    6144KiB time=00:00:06.74 bitrate=7467.6kbits/s speed=0.0275x elapsed=0:04:05.44    \nframe=  339 fps=1.4 q=29.0 size=    6144KiB time=00:00:06.76 bitrate=7445.5kbits/s speed=0.0275x elapsed=0:04:05.97    \nframe=  340 fps=1.4 q=29.0 size=    6144KiB time=00:00:06.78 bitrate=7423.5kbits/s speed=0.0275x elapsed=0:04:06.63    \nframe=  341 fps=1.4 q=29.0 size=    6144KiB time=00:00:06.80 bitrate=7401.7kbits/s speed=0.0275x elapsed=0:04:07.14    \nframe=  342 fps=1.4 q=29.0 size=    6144KiB time=00:00:06.82 bitrate=7380.0kbits/s speed=0.0275x elapsed=0:04:07.78    \nframe=  342 fps=1.4 q=29.0 size=    6144KiB time=00:00:06.82 bitrate=7380.0kbits/s speed=0.0275x elapsed=0:04:08.37    \nframe=  343 fps=1.4 q=28.0 size=    6144KiB time=00:00:06.84 bitrate=7358.4kbits/s speed=0.0275x elapsed=0:04:08.97    \nframe=  343 fps=1.4 q=28.0 size=    6144KiB time=00:00:06.84 bitrate=7358.4kbits/s speed=0.0274x elapsed=0:04:09.60    \nframe=  345 fps=1.4 q=28.0 size=    6144KiB time=00:00:06.88 bitrate=7315.6kbits/s speed=0.0275x elapsed=0:04:10.12    \nframe=  346 fps=1.4 q=24.0 size=    6144KiB time=00:00:06.90 bitrate=7294.4kbits/s speed=0.0275x elapsed=0:04:10.73    \nframe=  347 fps=1.4 q=28.0 size=    6144KiB time=00:00:06.90 bitrate=7294.4kbits/s speed=0.0275x elapsed=0:04:11.34    \nframe=  347 fps=1.4 q=28.0 size=    6144KiB time=00:00:06.92 bitrate=7273.4kbits/s speed=0.0275x elapsed=0:04:11.91    \nframe=  348 fps=1.4 q=28.0 size=    6144KiB time=00:00:06.94 bitrate=7252.4kbits/s speed=0.0275x elapsed=0:04:12.47    \nframe=  350 fps=1.4 q=28.0 size=    6144KiB time=00:00:06.98 bitrate=7210.8kbits/s speed=0.0276x elapsed=0:04:12.99    \nframe=  351 fps=1.4 q=29.0 size=    6144KiB time=00:00:07.00 bitrate=7190.2kbits/s speed=0.0276x elapsed=0:04:13.53    \nframe=  352 fps=1.4 q=29.0 size=    6144KiB time=00:00:07.02 bitrate=7169.8kbits/s speed=0.0276x elapsed=0:04:14.07    \nframe=  353 fps=1.4 q=24.0 size=    6144KiB time=00:00:07.04 bitrate=7149.4kbits/s speed=0.0276x elapsed=0:04:14.62    \nframe=  354 fps=1.4 q=16.0 size=    6144KiB time=00:00:07.06 bitrate=7129.1kbits/s speed=0.0277x elapsed=0:04:15.16    \nframe=  355 fps=1.4 q=29.0 size=    6144KiB time=00:00:07.08 bitrate=7109.0kbits/s speed=0.0277x elapsed=0:04:15.67    \nframe=  355 fps=1.4 q=29.0 size=    6144KiB time=00:00:07.08 bitrate=7109.0kbits/s speed=0.0276x elapsed=0:04:16.22    \nframe=  356 fps=1.4 q=30.0 size=    6144KiB time=00:00:07.10 bitrate=7089.0kbits/s speed=0.0277x elapsed=0:04:16.74    \nframe=  357 fps=1.4 q=29.0 size=    6144KiB time=00:00:07.10 bitrate=7089.0kbits/s speed=0.0276x elapsed=0:04:17.27    \nframe=  357 fps=1.4 q=29.0 size=    6144KiB time=00:00:07.12 bitrate=7069.1kbits/s speed=0.0276x elapsed=0:04:17.84    \nframe=  358 fps=1.4 q=29.0 size=    6144KiB time=00:00:07.14 bitrate=7049.3kbits/s speed=0.0276x elapsed=0:04:18.43    \nframe=  358 fps=1.4 q=29.0 size=    6144KiB time=00:00:07.14 bitrate=7049.3kbits/s speed=0.0276x elapsed=0:04:18.96    \nframe=  358 fps=1.4 q=29.0 size=    6144KiB time=00:00:07.14 bitrate=7049.3kbits/s speed=0.0275x elapsed=0:04:19.51    \nframe=  359 fps=1.4 q=29.0 size=    6144KiB time=00:00:07.16 bitrate=7029.6kbits/s speed=0.0275x elapsed=0:04:20.03    \nframe=  359 fps=1.4 q=29.0 size=    6144KiB time=00:00:07.16 bitrate=7029.6kbits/s speed=0.0275x elapsed=0:04:20.53    \nframe=  360 fps=1.4 q=30.0 size=    6144KiB time=00:00:07.18 bitrate=7010.0kbits/s speed=0.0275x elapsed=0:04:21.05    \nframe=  360 fps=1.4 q=30.0 size=    6144KiB time=00:00:07.18 bitrate=7010.0kbits/s speed=0.0274x elapsed=0:04:21.59    \nframe=  362 fps=1.4 q=24.0 size=    6144KiB time=00:00:07.22 bitrate=6971.1kbits/s speed=0.0275x elapsed=0:04:22.12    \nframe=  362 fps=1.4 q=24.0 size=    6144KiB time=00:00:07.22 bitrate=6971.1kbits/s speed=0.0275x elapsed=0:04:22.64    \nframe=  363 fps=1.4 q=29.0 size=    6144KiB time=00:00:07.24 bitrate=6951.9kbits/s speed=0.0275x elapsed=0:04:23.16    \nframe=  363 fps=1.4 q=29.0 size=    6144KiB time=00:00:07.24 bitrate=6951.9kbits/s speed=0.0275x elapsed=0:04:23.71    \nframe=  364 fps=1.4 q=30.0 size=    6144KiB time=00:00:07.26 bitrate=6932.7kbits/s speed=0.0275x elapsed=0:04:24.22    \nframe=  365 fps=1.4 q=26.0 size=    6144KiB time=00:00:07.28 bitrate=6913.7kbits/s speed=0.0275x elapsed=0:04:24.76    \nframe=  367 fps=1.4 q=29.0 size=    6144KiB time=00:00:07.32 bitrate=6875.9kbits/s speed=0.0276x elapsed=0:04:25.27    \nframe=  367 fps=1.4 q=29.0 size=    6144KiB time=00:00:07.32 bitrate=6875.9kbits/s speed=0.0275x elapsed=0:04:25.81    \nframe=  368 fps=1.4 q=29.0 size=    6144KiB time=00:00:07.34 bitrate=6857.2kbits/s speed=0.0276x elapsed=0:04:26.33    \nframe=  369 fps=1.4 q=24.0 size=    6144KiB time=00:00:07.36 bitrate=6838.5kbits/s speed=0.0276x elapsed=0:04:26.89    \nframe=  369 fps=1.4 q=24.0 size=    6144KiB time=00:00:07.36 bitrate=6838.5kbits/s speed=0.0275x elapsed=0:04:27.41    \nframe=  369 fps=1.4 q=24.0 size=    6144KiB time=00:00:07.36 bitrate=6838.5kbits/s speed=0.0275x elapsed=0:04:27.93    \nframe=  370 fps=1.4 q=15.0 size=    6144KiB time=00:00:07.38 bitrate=6820.0kbits/s speed=0.0275x elapsed=0:04:28.46    \nframe=  371 fps=1.4 q=29.0 size=    6144KiB time=00:00:07.40 bitrate=6801.6kbits/s speed=0.0275x elapsed=0:04:29.01    \nframe=  372 fps=1.4 q=29.0 size=    6144KiB time=00:00:07.42 bitrate=6783.2kbits/s speed=0.0275x elapsed=0:04:29.53    \nframe=  373 fps=1.4 q=29.0 size=    6144KiB time=00:00:07.44 bitrate=6765.0kbits/s speed=0.0276x elapsed=0:04:30.05    \nframe=  373 fps=1.4 q=29.0 size=    6144KiB time=00:00:07.44 bitrate=6765.0kbits/s speed=0.0275x elapsed=0:04:30.62    \nframe=  374 fps=1.4 q=29.0 size=    6144KiB time=00:00:07.46 bitrate=6746.9kbits/s speed=0.0275x elapsed=0:04:31.16    \nframe=  374 fps=1.4 q=29.0 size=    6144KiB time=00:00:07.46 bitrate=6746.9kbits/s speed=0.0275x elapsed=0:04:31.69    \nframe=  375 fps=1.4 q=29.0 size=    6144KiB time=00:00:07.48 bitrate=6728.8kbits/s speed=0.0275x elapsed=0:04:32.29    \nframe=  375 fps=1.4 q=29.0 size=    6144KiB time=00:00:07.48 bitrate=6728.8kbits/s speed=0.0274x elapsed=0:04:32.85    \nframe=  375 fps=1.4 q=29.0 size=    6144KiB time=00:00:07.48 bitrate=6728.8kbits/s speed=0.0274x elapsed=0:04:33.40    \nframe=  376 fps=1.4 q=29.0 size=    6144KiB time=00:00:07.50 bitrate=6710.9kbits/s speed=0.0274x elapsed=0:04:33.93    \nframe=  378 fps=1.4 q=24.0 size=    6144KiB time=00:00:07.54 bitrate=6675.3kbits/s speed=0.0275x elapsed=0:04:34.46    \nframe=  379 fps=1.4 q=29.0 size=    6144KiB time=00:00:07.56 bitrate=6657.6kbits/s speed=0.0275x elapsed=0:04:35.00    \nframe=  379 fps=1.4 q=29.0 size=    6144KiB time=00:00:07.56 bitrate=6657.6kbits/s speed=0.0274x elapsed=0:04:35.52    \nframe=  381 fps=1.4 q=27.0 size=    6144KiB time=00:00:07.60 bitrate=6622.6kbits/s speed=0.0275x elapsed=0:04:36.04    \nframe=  382 fps=1.4 q=28.0 size=    6144KiB time=00:00:07.62 bitrate=6605.2kbits/s speed=0.0276x elapsed=0:04:36.58    \nframe=  384 fps=1.4 q=29.0 size=    6144KiB time=00:00:07.66 bitrate=6570.7kbits/s speed=0.0276x elapsed=0:04:37.10    \nframe=  385 fps=1.4 q=29.0 size=    6144KiB time=00:00:07.68 bitrate=6553.6kbits/s speed=0.0277x elapsed=0:04:37.63    \nframe=  386 fps=1.4 q=16.0 size=    6144KiB time=00:00:07.70 bitrate=6536.6kbits/s speed=0.0277x elapsed=0:04:38.17    \nframe=  387 fps=1.4 q=29.0 size=    6144KiB time=00:00:07.72 bitrate=6519.6kbits/s speed=0.0277x elapsed=0:04:38.71    \nframe=  387 fps=1.4 q=29.0 size=    6144KiB time=00:00:07.72 bitrate=6519.6kbits/s speed=0.0276x elapsed=0:04:39.27    \nframe=  388 fps=1.4 q=29.0 size=    6144KiB time=00:00:07.74 bitrate=6502.8kbits/s speed=0.0277x elapsed=0:04:39.80    \nframe=  389 fps=1.4 q=29.0 size=    6144KiB time=00:00:07.76 bitrate=6486.0kbits/s speed=0.0277x elapsed=0:04:40.35    \nframe=  390 fps=1.4 q=29.0 size=    6144KiB time=00:00:07.78 bitrate=6469.4kbits/s speed=0.0277x elapsed=0:04:40.88    \nframe=  390 fps=1.4 q=29.0 size=    6144KiB time=00:00:07.78 bitrate=6469.4kbits/s speed=0.0276x elapsed=0:04:41.41    \nframe=  390 fps=1.4 q=29.0 size=    6144KiB time=00:00:07.78 bitrate=6469.4kbits/s speed=0.0276x elapsed=0:04:41.93    \nframe=  391 fps=1.4 q=29.0 size=    6144KiB time=00:00:07.80 bitrate=6452.8kbits/s speed=0.0276x elapsed=0:04:42.48    \nframe=  391 fps=1.4 q=29.0 size=    6144KiB time=00:00:07.80 bitrate=6452.8kbits/s speed=0.0276x elapsed=0:04:43.02    \nframe=  393 fps=1.4 q=29.0 size=    6144KiB time=00:00:07.84 bitrate=6419.9kbits/s speed=0.0277x elapsed=0:04:43.53    \nframe=  394 fps=1.4 q=25.0 size=    6144KiB time=00:00:07.86 bitrate=6403.5kbits/s speed=0.0277x elapsed=0:04:44.05    \nframe=  395 fps=1.4 q=28.0 size=    6144KiB time=00:00:07.88 bitrate=6387.3kbits/s speed=0.0277x elapsed=0:04:44.59    \nframe=  396 fps=1.4 q=28.0 size=    6144KiB time=00:00:07.90 bitrate=6371.1kbits/s speed=0.0277x elapsed=0:04:45.11    \nframe=  397 fps=1.4 q=28.0 size=    6144KiB time=00:00:07.92 bitrate=6355.0kbits/s speed=0.0277x elapsed=0:04:45.66    \nframe=  398 fps=1.4 q=28.0 size=    6144KiB time=00:00:07.94 bitrate=6339.0kbits/s speed=0.0277x elapsed=0:04:46.17    \nframe=  399 fps=1.4 q=29.0 size=    6144KiB time=00:00:07.96 bitrate=6323.1kbits/s speed=0.0278x elapsed=0:04:46.69    \nframe=  401 fps=1.4 q=29.0 size=    6144KiB time=00:00:07.98 bitrate=6307.2kbits/s speed=0.0278x elapsed=0:04:47.24    \nframe=  401 fps=1.4 q=29.0 size=    6144KiB time=00:00:08.00 bitrate=6291.5kbits/s speed=0.0278x elapsed=0:04:47.76    \nframe=  404 fps=1.4 q=29.0 size=    6144KiB time=00:00:08.06 bitrate=6244.6kbits/s speed=0.028x elapsed=0:04:48.31    \nframe=  406 fps=1.4 q=29.0 size=    6144KiB time=00:00:08.06 bitrate=6244.6kbits/s speed=0.0279x elapsed=0:04:48.87    \nframe=  406 fps=1.4 q=29.0 size=    6144KiB time=00:00:08.10 bitrate=6213.8kbits/s speed=0.028x elapsed=0:04:49.44    \nframe=  406 fps=1.4 q=29.0 size=    6144KiB time=00:00:08.10 bitrate=6213.8kbits/s speed=0.0279x elapsed=0:04:49.98    \nframe=  406 fps=1.4 q=29.0 size=    6144KiB time=00:00:08.10 bitrate=6213.8kbits/s speed=0.0279x elapsed=0:04:50.53    \nframe=  408 fps=1.4 q=29.0 size=    6144KiB time=00:00:08.14 bitrate=6183.2kbits/s speed=0.028x elapsed=0:04:51.05    \nframe=  410 fps=1.4 q=25.0 size=    6144KiB time=00:00:08.18 bitrate=6153.0kbits/s speed=0.0281x elapsed=0:04:51.57    \nframe=  410 fps=1.4 q=25.0 size=    6144KiB time=00:00:08.18 bitrate=6153.0kbits/s speed=0.028x elapsed=0:04:52.10    \nframe=  410 fps=1.4 q=25.0 size=    6144KiB time=00:00:08.18 bitrate=6153.0kbits/s speed=0.0279x elapsed=0:04:52.71    \nframe=  410 fps=1.4 q=25.0 size=    6144KiB time=00:00:08.18 bitrate=6153.0kbits/s speed=0.0279x elapsed=0:04:53.24    \nframe=  410 fps=1.4 q=25.0 size=    6144KiB time=00:00:08.18 bitrate=6153.0kbits/s speed=0.0278x elapsed=0:04:53.76    \nframe=  410 fps=1.4 q=25.0 size=    6144KiB time=00:00:08.18 bitrate=6153.0kbits/s speed=0.0278x elapsed=0:04:54.27    \nframe=  410 fps=1.4 q=25.0 size=    6144KiB time=00:00:08.18 bitrate=6153.0kbits/s speed=0.0277x elapsed=0:04:54.80    \nframe=  412 fps=1.4 q=29.0 size=    6144KiB time=00:00:08.22 bitrate=6123.1kbits/s speed=0.0278x elapsed=0:04:55.33    \nframe=  414 fps=1.4 q=28.0 size=    6144KiB time=00:00:08.26 bitrate=6093.4kbits/s speed=0.0279x elapsed=0:04:55.86    \nframe=  414 fps=1.4 q=28.0 size=    6144KiB time=00:00:08.26 bitrate=6093.4kbits/s speed=0.0279x elapsed=0:04:56.40    \nframe=  414 fps=1.4 q=28.0 size=    6144KiB time=00:00:08.26 bitrate=6093.4kbits/s speed=0.0278x elapsed=0:04:56.99    \nframe=  416 fps=1.4 q=29.0 size=    6144KiB time=00:00:08.30 bitrate=6064.1kbits/s speed=0.0279x elapsed=0:04:57.51    \nframe=  416 fps=1.4 q=29.0 size=    6144KiB time=00:00:08.30 bitrate=6064.1kbits/s speed=0.0279x elapsed=0:04:58.02    \nframe=  418 fps=1.4 q=16.0 size=    6144KiB time=00:00:08.34 bitrate=6035.0kbits/s speed=0.0279x elapsed=0:04:58.55    \nframe=  418 fps=1.4 q=16.0 size=    6144KiB time=00:00:08.34 bitrate=6035.0kbits/s speed=0.0279x elapsed=0:04:59.13    \nframe=  420 fps=1.4 q=30.0 size=    6144KiB time=00:00:08.38 bitrate=6006.2kbits/s speed=0.028x elapsed=0:04:59.69    \nframe=  420 fps=1.4 q=30.0 size=    6144KiB time=00:00:08.38 bitrate=6006.2kbits/s speed=0.0279x elapsed=0:05:00.27    \nframe=  422 fps=1.4 q=29.0 size=    6144KiB time=00:00:08.42 bitrate=5977.6kbits/s speed=0.028x elapsed=0:05:00.79    \nframe=  422 fps=1.4 q=29.0 size=    6144KiB time=00:00:08.42 bitrate=5977.6kbits/s speed=0.0279x elapsed=0:05:01.38    \nframe=  424 fps=1.4 q=29.0 size=    6144KiB time=00:00:08.46 bitrate=5949.4kbits/s speed=0.028x elapsed=0:05:01.89    \nframe=  426 fps=1.4 q=24.0 size=    6144KiB time=00:00:08.50 bitrate=5921.4kbits/s speed=0.0281x elapsed=0:05:02.43    \nframe=  426 fps=1.4 q=24.0 size=    6144KiB time=00:00:08.50 bitrate=5921.4kbits/s speed=0.0281x elapsed=0:05:02.97    \nframe=  426 fps=1.4 q=24.0 size=    6144KiB time=00:00:08.50 bitrate=5921.4kbits/s speed=0.028x elapsed=0:05:03.50    \nframe=  426 fps=1.4 q=24.0 size=    6144KiB time=00:00:08.50 bitrate=5921.4kbits/s speed=0.028x elapsed=0:05:04.06    \nframe=  426 fps=1.4 q=24.0 size=    6144KiB time=00:00:08.50 bitrate=5921.4kbits/s speed=0.0279x elapsed=0:05:04.61    \nframe=  428 fps=1.4 q=30.0 size=    6144KiB time=00:00:08.54 bitrate=5893.6kbits/s speed=0.028x elapsed=0:05:05.30    \nframe=  430 fps=1.4 q=28.0 size=    6144KiB time=00:00:08.58 bitrate=5866.2kbits/s speed=0.028x elapsed=0:05:05.96    \nframe=  430 fps=1.4 q=28.0 size=    6144KiB time=00:00:08.58 bitrate=5866.2kbits/s speed=0.028x elapsed=0:05:06.59    \nframe=  430 fps=1.4 q=28.0 size=    6144KiB time=00:00:08.58 bitrate=5866.2kbits/s speed=0.0279x elapsed=0:05:07.27    \nframe=  430 fps=1.4 q=28.0 size=    6144KiB time=00:00:08.58 bitrate=5866.2kbits/s speed=0.0279x elapsed=0:05:07.93    \nframe=  432 fps=1.4 q=29.0 size=    6144KiB time=00:00:08.62 bitrate=5838.9kbits/s speed=0.0279x elapsed=0:05:08.67    \nframe=  434 fps=1.4 q=16.0 size=    6144KiB time=00:00:08.66 bitrate=5812.0kbits/s speed=0.028x elapsed=0:05:09.22    \nframe=  434 fps=1.4 q=16.0 size=    6144KiB time=00:00:08.66 bitrate=5812.0kbits/s speed=0.028x elapsed=0:05:09.76    \nframe=  434 fps=1.4 q=16.0 size=    6144KiB time=00:00:08.66 bitrate=5812.0kbits/s speed=0.0279x elapsed=0:05:10.30    \nframe=  436 fps=1.4 q=31.0 size=    6144KiB time=00:00:08.70 bitrate=5785.2kbits/s speed=0.028x elapsed=0:05:10.84    \nframe=  438 fps=1.4 q=29.0 size=    6144KiB time=00:00:08.74 bitrate=5758.8kbits/s speed=0.0281x elapsed=0:05:11.46    \nframe=  438 fps=1.4 q=29.0 size=    6144KiB time=00:00:08.74 bitrate=5758.8kbits/s speed=0.028x elapsed=0:05:12.02    \nframe=  438 fps=1.4 q=29.0 size=    6144KiB time=00:00:08.74 bitrate=5758.8kbits/s speed=0.028x elapsed=0:05:12.58    \nframe=  438 fps=1.4 q=29.0 size=    6144KiB time=00:00:08.74 bitrate=5758.8kbits/s speed=0.0279x elapsed=0:05:13.16    \nframe=  440 fps=1.4 q=31.0 size=    6144KiB time=00:00:08.78 bitrate=5732.5kbits/s speed=0.028x elapsed=0:05:13.76    \nframe=  442 fps=1.4 q=24.0 size=    6144KiB time=00:00:08.82 bitrate=5706.5kbits/s speed=0.0281x elapsed=0:05:14.34    \nframe=  442 fps=1.4 q=24.0 size=    6144KiB time=00:00:08.82 bitrate=5706.5kbits/s speed=0.028x elapsed=0:05:14.92    \nframe=  442 fps=1.4 q=24.0 size=    6144KiB time=00:00:08.82 bitrate=5706.5kbits/s speed=0.028x elapsed=0:05:15.50    \nframe=  442 fps=1.4 q=24.0 size=    6144KiB time=00:00:08.82 bitrate=5706.5kbits/s speed=0.0279x elapsed=0:05:16.11    \nframe=  444 fps=1.4 q=31.0 size=    6144KiB time=00:00:08.86 bitrate=5680.8kbits/s speed=0.028x elapsed=0:05:16.74    \nframe=  444 fps=1.4 q=31.0 size=    6144KiB time=00:00:08.86 bitrate=5680.8kbits/s speed=0.0279x elapsed=0:05:17.28    \nframe=  446 fps=1.4 q=28.0 size=    6144KiB time=00:00:08.90 bitrate=5655.2kbits/s speed=0.028x elapsed=0:05:17.87    \nframe=  446 fps=1.4 q=28.0 size=    6144KiB time=00:00:08.90 bitrate=5655.2kbits/s speed=0.0279x elapsed=0:05:18.51    \nframe=  446 fps=1.4 q=28.0 size=    6144KiB time=00:00:08.90 bitrate=5655.2kbits/s speed=0.0279x elapsed=0:05:19.03    \nframe=  448 fps=1.4 q=30.0 size=    6144KiB time=00:00:08.94 bitrate=5629.9kbits/s speed=0.028x elapsed=0:05:19.57    \nframe=  450 fps=1.4 q=14.0 size=    6144KiB time=00:00:08.98 bitrate=5604.9kbits/s speed=0.0281x elapsed=0:05:20.10    \nframe=  450 fps=1.4 q=14.0 size=    6144KiB time=00:00:08.98 bitrate=5604.9kbits/s speed=0.028x elapsed=0:05:20.66    \nframe=  450 fps=1.4 q=14.0 size=    6144KiB time=00:00:08.98 bitrate=5604.9kbits/s speed=0.028x elapsed=0:05:21.24    \nframe=  452 fps=1.4 q=30.0 size=    6144KiB time=00:00:09.02 bitrate=5580.0kbits/s speed=0.028x elapsed=0:05:21.79    \nframe=  454 fps=1.4 q=29.0 size=    6144KiB time=00:00:09.02 bitrate=5580.0kbits/s speed=0.028x elapsed=0:05:22.35    \nframe=  454 fps=1.4 q=29.0 size=    6144KiB time=00:00:09.06 bitrate=5555.4kbits/s speed=0.0281x elapsed=0:05:22.95    \nframe=  454 fps=1.4 q=29.0 size=    6144KiB time=00:00:09.06 bitrate=5555.4kbits/s speed=0.028x elapsed=0:05:23.53    \nframe=  454 fps=1.4 q=29.0 size=    6144KiB time=00:00:09.06 bitrate=5555.4kbits/s speed=0.028x elapsed=0:05:24.12    \nframe=  456 fps=1.4 q=29.0 size=    6144KiB time=00:00:09.10 bitrate=5531.0kbits/s speed=0.028x elapsed=0:05:24.66    \nframe=  458 fps=1.4 q=24.0 size=    6144KiB time=00:00:09.14 bitrate=5506.7kbits/s speed=0.0281x elapsed=0:05:25.22    \nframe=  458 fps=1.4 q=24.0 size=    6144KiB time=00:00:09.14 bitrate=5506.7kbits/s speed=0.0281x elapsed=0:05:25.79    \nframe=  458 fps=1.4 q=24.0 size=    6144KiB time=00:00:09.14 bitrate=5506.7kbits/s speed=0.028x elapsed=0:05:26.30    \nframe=  458 fps=1.4 q=24.0 size=    6144KiB time=00:00:09.14 bitrate=5506.7kbits/s speed=0.028x elapsed=0:05:26.83    \nframe=  458 fps=1.4 q=24.0 size=    6144KiB time=00:00:09.14 bitrate=5506.7kbits/s speed=0.0279x elapsed=0:05:27.38    \nframe=  460 fps=1.4 q=30.0 size=    6144KiB time=00:00:09.18 bitrate=5482.8kbits/s speed=0.028x elapsed=0:05:27.93    \nframe=  460 fps=1.4 q=30.0 size=    6144KiB time=00:00:09.18 bitrate=5482.8kbits/s speed=0.0279x elapsed=0:05:28.48    \nframe=  462 fps=1.4 q=27.0 size=    6144KiB time=00:00:09.22 bitrate=5459.0kbits/s speed=0.028x elapsed=0:05:29.10    \nframe=  462 fps=1.4 q=27.0 size=    6144KiB time=00:00:09.22 bitrate=5459.0kbits/s speed=0.028x elapsed=0:05:29.68    \nframe=  462 fps=1.4 q=27.0 size=    6144KiB time=00:00:09.22 bitrate=5459.0kbits/s speed=0.0279x elapsed=0:05:30.22    \nframe=  464 fps=1.4 q=30.0 size=    6144KiB time=00:00:09.26 bitrate=5435.4kbits/s speed=0.028x elapsed=0:05:30.74    \nframe=  466 fps=1.4 q=15.0 size=    6144KiB time=00:00:09.30 bitrate=5412.0kbits/s speed=0.0281x elapsed=0:05:31.26    \nframe=  466 fps=1.4 q=15.0 size=    6144KiB time=00:00:09.30 bitrate=5412.0kbits/s speed=0.028x elapsed=0:05:31.77    \nframe=  468 fps=1.4 q=30.0 size=    6144KiB time=00:00:09.34 bitrate=5388.8kbits/s speed=0.0281x elapsed=0:05:32.29    \nframe=  470 fps=1.4 q=29.0 size=    6144KiB time=00:00:09.38 bitrate=5365.8kbits/s speed=0.0282x elapsed=0:05:32.85    \nframe=  470 fps=1.4 q=29.0 size=    6144KiB time=00:00:09.38 bitrate=5365.8kbits/s speed=0.0281x elapsed=0:05:33.37    \nframe=  472 fps=1.4 q=29.0 size=    6144KiB time=00:00:09.38 bitrate=5365.8kbits/s speed=0.0281x elapsed=0:05:33.97    \nframe=  472 fps=1.4 q=29.0 size=    6144KiB time=00:00:09.42 bitrate=5343.1kbits/s speed=0.0282x elapsed=0:05:34.52    \nframe=  474 fps=1.4 q=23.0 size=    6144KiB time=00:00:09.46 bitrate=5320.5kbits/s speed=0.0282x elapsed=0:05:35.12    \nframe=  474 fps=1.4 q=23.0 size=    6144KiB time=00:00:09.46 bitrate=5320.5kbits/s speed=0.0282x elapsed=0:05:35.69    \nframe=  474 fps=1.4 q=23.0 size=    6144KiB time=00:00:09.46 bitrate=5320.5kbits/s speed=0.0281x elapsed=0:05:36.29    \nframe=  474 fps=1.4 q=23.0 size=    6144KiB time=00:00:09.46 bitrate=5320.5kbits/s speed=0.0281x elapsed=0:05:36.87    \nframe=  474 fps=1.4 q=23.0 size=    6144KiB time=00:00:09.46 bitrate=5320.5kbits/s speed=0.028x elapsed=0:05:37.39    \nframe=  476 fps=1.4 q=29.0 size=    6144KiB time=00:00:09.50 bitrate=5298.1kbits/s speed=0.0281x elapsed=0:05:38.00    \nframe=  478 fps=1.4 q=30.0 size=    6144KiB time=00:00:09.54 bitrate=5275.9kbits/s speed=0.0282x elapsed=0:05:38.56    \nframe=  478 fps=1.4 q=30.0 size=    6144KiB time=00:00:09.54 bitrate=5275.9kbits/s speed=0.0281x elapsed=0:05:39.16    \nframe=  480 fps=1.4 q=32.0 size=    6144KiB time=00:00:09.58 bitrate=5253.8kbits/s speed=0.0282x elapsed=0:05:39.76    \nframe=  480 fps=1.4 q=32.0 size=    6144KiB time=00:00:09.58 bitrate=5253.8kbits/s speed=0.0281x elapsed=0:05:40.47    \nframe=  482 fps=1.4 q=15.0 size=    6144KiB time=00:00:09.62 bitrate=5232.0kbits/s speed=0.0282x elapsed=0:05:41.07    \nframe=  482 fps=1.4 q=15.0 size=    6144KiB time=00:00:09.62 bitrate=5232.0kbits/s speed=0.0282x elapsed=0:05:41.65    \nframe=  484 fps=1.4 q=30.0 size=    6144KiB time=00:00:09.66 bitrate=5210.3kbits/s speed=0.0282x elapsed=0:05:42.23    \nframe=  486 fps=1.4 q=32.0 size=    6144KiB time=00:00:09.70 bitrate=5188.8kbits/s speed=0.0283x elapsed=0:05:42.79    \nframe=  486 fps=1.4 q=32.0 size=    6144KiB time=00:00:09.70 bitrate=5188.8kbits/s speed=0.0283x elapsed=0:05:43.34    \nframe=  486 fps=1.4 q=32.0 size=    6144KiB time=00:00:09.70 bitrate=5188.8kbits/s speed=0.0282x elapsed=0:05:43.91    \nframe=  488 fps=1.4 q=30.0 size=    6144KiB time=00:00:09.74 bitrate=5167.5kbits/s speed=0.0283x elapsed=0:05:44.48    \nframe=  490 fps=1.4 q=28.0 size=    6144KiB time=00:00:09.78 bitrate=5146.4kbits/s speed=0.0283x elapsed=0:05:45.09    \nframe=  490 fps=1.4 q=28.0 size=    6144KiB time=00:00:09.78 bitrate=5146.4kbits/s speed=0.0283x elapsed=0:05:45.68    \nframe=  490 fps=1.4 q=28.0 size=    6144KiB time=00:00:09.78 bitrate=5146.4kbits/s speed=0.0282x elapsed=0:05:46.30    \nframe=  490 fps=1.4 q=28.0 size=    6144KiB time=00:00:09.78 bitrate=5146.4kbits/s speed=0.0282x elapsed=0:05:46.94    \nframe=  490 fps=1.4 q=28.0 size=    6144KiB time=00:00:09.78 bitrate=5146.4kbits/s speed=0.0281x elapsed=0:05:47.54    \nframe=  492 fps=1.4 q=30.0 size=    6144KiB time=00:00:09.82 bitrate=5125.4kbits/s speed=0.0282x elapsed=0:05:48.09    \nframe=  494 fps=1.4 q=32.0 size=    6144KiB time=00:00:09.86 bitrate=5104.6kbits/s speed=0.0283x elapsed=0:05:48.65    \nframe=  494 fps=1.4 q=32.0 size=    6144KiB time=00:00:09.86 bitrate=5104.6kbits/s speed=0.0282x elapsed=0:05:49.20    \nframe=  496 fps=1.4 q=30.0 size=    6144KiB time=00:00:09.90 bitrate=5084.0kbits/s speed=0.0283x elapsed=0:05:49.74    \nframe=  496 fps=1.4 q=30.0 size=    6144KiB time=00:00:09.90 bitrate=5084.0kbits/s speed=0.0283x elapsed=0:05:50.30    \n[out#0/matroska @ 000002580d939080] video:9489KiB audio:0KiB subtitle:0KiB other streams:0KiB global headers:0KiB muxing overhead: 0.031306%\nframe=  500 fps=1.4 q=28.0 Lsize=    9492KiB time=00:00:09.98 bitrate=7791.5kbits/s speed=0.0285x elapsed=0:05:50.62    \n",
  "seconds": 354.8139522075653,
  "probe_out": {}
}